<svg width="34" height="77" fill="none" xmlns="http://www.w3.org/2000/svg"><path d="M31.907 66.1456h-30c-.7375 0-1.3362-.598-1.3362-1.3362V.6538h32.6724v64.1556c0 .7382-.5986 1.3362-1.3362 1.3362z" fill="#ED3333"/><path d="M2.3995 49.3211l.1849 17.6345L17.344 73.776l13.0157-7.0893.9874-.1795V49.68L16.981 41.0649 2.3995 49.3211z" fill="#fff"/><path d="M33.2432 48.7534c.0007-.428-.1551-.6962-.5282-.9095-5.0305-2.8789-15.51-8.9307-15.51-8.9307s-.1991-.1002-.298-.1002c-.0995 0-.298.1002-.298.1002s-10.4802 6.0518-15.51 8.93c-.3731.2133-.5289.4815-.5282.9095.004 2.9575.004 14.7861 0 17.7435-.0007.4281.155.6962.5282.9096 5.0305 2.8789 15.51 8.93 15.51 8.93s.1991.1002.298.1002c.0996 0 .298-.1002.298-.1002s10.4795-6.0518 15.51-8.93c.3731-.2134.5289-.4815.5282-.9096-.004-2.9574-.004-14.786 0-17.7428zm-13.2961-5.5052c3.3787 1.9409 6.7581 3.8812 10.1321 5.8188-.0528.1408-.1537.1503-.2316.1849-1.0308.4591-2.0649.9108-3.0936 1.3741-.1896.0846-.3176.0846-.4693-.0867-2.0913-2.369-4.1901-4.7312-6.2868-7.0954-.0359-.0406-.0643-.088-.0968-.1321.0155-.0216.0304-.0426.046-.0636zm8.0252 11.7161c.6563.6 1.0389 1.4195 1.0789 2.3074.0399.8878-.2689 1.7384-.8689 2.3946-.6001.6563-1.4195 1.0389-2.3074 1.0789-.8865.0399-1.7384-.2689-2.3947-.8689-.6562-.6-1.0388-1.4195-1.0788-2.3073-.0819-1.8333 1.343-3.3916 3.1762-3.4736a3.8742 3.8742 0 01.1524-.0034c.8323 0 1.6233.3068 2.2423.8723zM16.7018 41.9438c.082-.0934.1477-.1341.2086-.1361.0616.002.1266.0427.2093.1361 2.5782 2.9169 5.1639 5.8276 7.7468 8.7404.021.0244.0325.0576.0786.1429H8.8764c.046-.0853.0569-.1185.0785-.1429 2.583-2.9128 5.168-5.8235 7.7469-8.7404zm-2.8274 1.3044c.0149.021.0304.042.0453.0636-.0318.0441-.0609.0915-.0968.1321-2.096 2.3642-4.1955 4.7264-6.2868 7.0954-.1517.1713-.2797.1713-.4693.0867-1.0287-.4633-2.0628-.915-3.0936-1.3741-.0779-.0346-.1788-.0441-.2316-.1849 3.374-1.9376 6.7534-3.8779 10.1328-5.8188zM8.0874 54.092c.0508 0 .1016.0014.1524.0034 1.8333.082 3.2582 1.6403 3.1762 3.4736-.0399.8878-.4226 1.7073-1.0788 2.3073-.6563.6-1.5075.9088-2.3947.8689-.8879-.04-1.7073-.4226-2.3073-1.0789-.6-.6562-.9082-1.5061-.869-2.3946.04-.8879.4226-1.7074 1.0789-2.3074.619-.5655 1.41-.8723 2.2423-.8723zm-5.1192 8.0997c-.0013-3.9049-.002-7.8105.0007-11.7154 0-.3413.0562-.3671.39-.2201 1.001.4422 1.9966.898 3.0056 1.3206.3258.1361.3813.2824.2642.6109-.1274.3582-.254.7165-.3813 1.0747a4.563 4.563 0 00-1.2245.8019c-.8966.8194-1.4194 1.9389-1.4743 3.1525-.0359.8045.1388 1.5868.4984 2.2836a2061.145 2061.145 0 01-.661 1.8787c-.1137.325-.2295.6494-.348.9826-.0854-.0575-.0698-.1185-.0698-.17zm27.2674 3.4086c-1.3395.1869-2.6791.3745-4.0187.5614-.4063.0576-.8126.1144-1.219.1707v1.2373c0 1.4675-1.1939 2.6608-2.6608 2.6608h-.8317v-2.541a.6095.6095 0 00-1.219 0v2.541h-2.7665v-2.541a.6095.6095 0 00-1.219 0v2.541h-2.7665v-2.541a.6095.6095 0 00-1.219 0v2.541h-.831c-1.4676 0-2.6608-1.1933-2.6608-2.6608v-1.2373a392.2903 392.2903 0 01-1.219-.1707c-1.3396-.1869-2.6792-.3745-4.0188-.5614-.4009-.0562-.4185-.08-.2817-.4694.3955-1.1262.9745-2.7719 1.5793-4.4887.8039.8019 1.863 1.2692 3.005 1.3206.0697.0034.1387.0048.2078.0048 1.1378 0 2.2186-.4185 3.0638-1.1913.8967-.8194 1.4195-1.9389 1.4744-3.1525.1117-2.5044-1.8347-4.6336-4.339-4.7454a4.6704 4.6704 0 00-.6746.019c.3603-.8912.5628-.8689 1.1303-.8689 0 0 5.4991 0 8.1552.0007h.0116c1.328-.0007 3.3665-.0007 5.0738-.0007h3.0814c.5668 0 .7687-.0223 1.1296.8689a4.6042 4.6042 0 00-.6779-.0196c-2.5044.1117-4.4514 2.2409-4.339 4.7453.0542 1.2136.5777 2.3331 1.4743 3.1526.8452.7727 1.9261 1.1912 3.0638 1.1912.0691 0 .1382-.0013.2079-.0047 1.1432-.0515 2.2031-.5195 3.0069-1.3227.6048 1.7175 1.1845 3.3645 1.5807 4.4914.1348.3894.1165.4132-.2838.4694zm.5466-3.2386c-.1179-.3332-.2337-.6576-.3481-.9826-.2208-.6272-.4416-1.2549-.6617-1.8821.3589-.6962.533-1.4763.4971-2.2802-.0542-1.2136-.5777-2.3331-1.4743-3.1525a4.5577 4.5577 0 00-1.2211-.8005c-.1273-.3589-.2539-.7179-.3819-1.0761-.1172-.3285-.061-.4748.2641-.6109 1.0091-.4226 2.0046-.8784 3.0055-1.3206.3346-.147.3901-.1212.3901.2201.0027 3.9049.0021 7.8105.0007 11.7154 0 .0515.0163.1125-.0704.17z" fill="#ED3333"/><path d="M14.5984 63.8873c-.1239-.1239 1.9972-4.0045 2.3121-4.0045.3149 0 2.4475 3.8684 2.3121 4.0045-.1362.1354-4.5002.1239-4.6242 0z" fill="#ED3333"/><path d="M10.3771 36.3367c-.5445 0-1.0382-.0772-1.479-.2323-.4416-.1551-.8195-.4037-1.1344-.747-.315-.3427-.5567-.789-.7253-1.3382-.1693-.5493-.2533-1.2184-.2533-2.0074v-1.1411c0-.789.0867-1.4581.2607-2.0073.1734-.5492.4179-.9955.7328-1.3382.3142-.3427.6928-.5919 1.1344-.747.4415-.1551.9298-.2323 1.4648-.2323.5445 0 1.0375.0772 1.4791.2323.4415.1551.8174.4036 1.1269.747.3102.3427.5492.789.7186 1.3382.1693.5492.2532 1.219.2532 2.0073v1.1411c0 .789-.0826 1.4581-.2465 2.0074-.1645.5492-.4016.9955-.7111 1.3382-.3101.3427-.686.5919-1.1269.747-.4422.1544-.94.2323-1.494.2323zm.0143-8.0165c-.2533 0-.4579.0542-.613.1619-.155.1084-.2749.2675-.3589.4788-.084.2113-.1435.4768-.176.7958-.0332.3189-.0495.6955-.0495 1.1269v1.0991c0 .4321.0163.808.0494 1.1269.0326.3197.0915.5845.1761.7958.0847.2113.2019.3711.3522.4788.1503.1084.3474.1619.5919.1619.254 0 .4578-.0542.6129-.1619.1551-.1077.2749-.2675.3589-.4788.0847-.2113.1409-.4768.1693-.7958.0285-.3189.042-.6948.042-1.1269v-1.0991c0-.8642-.0731-1.5075-.218-1.9301-.1463-.422-.4585-.6333-.9373-.6333zM15.2374 26.7422h5.4382v1.8035h-3.1559v2.0709h2.86v1.8313h-2.86v3.6909h-2.2823v-9.3966zM21.7742 26.7422h5.4382v1.8035h-3.1559v2.0709h2.86v1.8313h-2.86v3.6909h-2.2823v-9.3966zM15.5432 18.8838c0 1.4939-.4158 2.6398-1.2474 3.4356-.8317.7964-2.1144 1.1946-3.8481 1.1946-.7334 0-1.3707-.046-1.9132-.1375-.5431-.0914-1.0043-.1794-1.3849-.2641v-2.7062c.3386.0846.7612.1727 1.2684.2641.5073.0921 1.0572.1375 1.6491.1375.8594 0 1.4696-.1653 1.8292-.4971.3596-.3312.5391-.793.5391-1.3849 0-.747-.1903-1.2401-.5709-1.4805-.3806-.2397-.8879-.3589-1.5224-.3589H7.2342V9.2637h7.6535v2.7699H9.9615v2.5369h1.1418c1.494 0 2.6073.363 3.3408 1.089.7327.726 1.0991 1.8007 1.0991 3.2243zM21.8016 23.6619c-.7897 0-1.4906-.1165-2.1035-.3488s-1.1351-.6027-1.5644-1.11c-.4301-.5072-.7579-1.1628-.9834-1.9667-.2255-.8032-.3379-1.7831-.3379-2.9385v-1.9667c0-1.1553.1165-2.1353.3488-2.9391.2329-.8032.5634-1.4588.9935-1.9661.43-.5072.9549-.8777 1.5752-1.11.6203-.233 1.3111-.3487 2.0723-.3487.7748 0 1.473.1165 2.0934.3488.6203.2322 1.1452.6027 1.5752 1.1099.43.5073.7578 1.1629.9833 1.9661.2256.8038.3387 1.7831.3387 2.9391v1.9667c0 1.1561-.1131 2.1353-.3387 2.9385-.2255.8039-.5499 1.4588-.9725 1.9667-.4226.508-.9447.8777-1.5644 1.11-.6217.2323-1.326.3488-2.1156.3488zm.0216-12.1367c-.367 0-.6488.0772-.8458.2323-.1978.1551-.3454.3914-.4443.7084-.0989.3169-.1585.7117-.1795 1.1838-.021.4727-.0318 1.0253-.0318 1.6599v1.9877c0 .6345.0108 1.1878.0318 1.6598.021.4728.0772.8669.1693 1.1839.0915.3169.2357.5533.4335.7083.197.1551.472.2323.8248.2323.3522 0 .6305-.0772.8351-.2323.2045-.155.3555-.3914.4544-.7083.0982-.317.1585-.7118.1795-1.1839.0209-.472.0318-1.0253.0318-1.6598v-1.9877c0-.6346-.0142-1.1872-.042-1.6599-.0284-.4721-.088-.8669-.1795-1.1838-.0921-.317-.2363-.5527-.4334-.7084-.1984-.1544-.4659-.2323-.8039-.2323zM28.0237 10.451c-.3162 0-.5688-.0887-.7571-.2668-.1889-.1781-.2831-.4687-.2831-.873v-.2241c0-.3996.0955-.6895.2865-.8696.191-.1802.4422-.2702.7537-.2702.3163 0 .5689.09.7572.2702.1889.1801.2831.47.2831.8696v.2241c0 .4036-.0935.6949-.2797.873-.1869.1781-.4402.2668-.7606.2668zm.0061-1.8902c-.1056 0-.1733.044-.2038.1321-.0305.088-.0461.2235-.0461.4084v.2045c0 .1754.0156.3081.0461.3982.0305.09.0968.1354.1977.1354.1057 0 .1721-.0446.2012-.1354.0284-.09.0427-.2228.0427-.3982v-.2045c0-.1842-.0143-.3204-.0427-.4084-.0291-.088-.0941-.132-.1951-.132zm2.9379-.5404l-1.8705 4.3932h-.9285l1.8705-4.3932h.9285zm.1578 4.4792c-.3163 0-.5689-.0887-.7572-.2668-.1889-.1781-.2831-.4686-.2831-.8723v-.2241c0-.3996.0955-.6895.2865-.8696.191-.1802.4423-.2702.7538-.2702.3162 0 .5689.09.7571.2702.189.1801.2831.47.2831.8696v.2241c0 .4037-.0935.6949-.2797.8723s-.4402.2668-.7605.2668zm.0067-1.8908c-.1056 0-.1733.044-.2045.1321-.0305.088-.046.2241-.046.4083v.2045c0 .1755.0155.3082.046.3983.0305.09.0969.1347.1978.1347.1056 0 .172-.0447.2011-.1347.0285-.0901.0427-.2228.0427-.3983v-.2045c0-.1842-.0142-.3203-.0427-.4083-.0291-.0881-.0934-.1321-.1944-.1321z" fill="#fff"/></svg>