<svg width="18" height="18" fill="none" xmlns="http://www.w3.org/2000/svg"><path d="M9 18c-4.9698-.0209-9-4.051-9-9.0209C0 4.0301 4.0302 0 8.9791 0c2.4223 0 4.6775.9397 6.3689 2.652C17.0603 4.3643 17.9791 6.6195 17.9791 9 18 13.949 13.949 18 9 18zM9 1.9211c-3.9049 0-7.0789 3.174-7.0789 7.058 0 3.8631 3.1323 7.0371 6.9745 7.0789 1.9838 0 3.7796-.7309 5.0951-2.0673C15.3271 12.6543 16.0789 10.8794 16.058 9c0-3.8422-3.1114-7.0162-6.9536-7.0789H9z" fill="#231F20"/><path d="M9 4.0093l1.4408 2.4849h2.8817L11.8817 9l1.4408 2.4849h-2.8817L9 13.9907l-1.4408-2.5058H4.6775L6.1183 9 4.6775 6.4942h2.8817L9 4.0092z" fill="#231F20"/></svg>