<svg width="215" height="313" fill="none" xmlns="http://www.w3.org/2000/svg"><path d="M107.001 312.203c-6.082-47.296-5.868-79.571-43.5453-96.437-7.5393-3.517-15.9142-7.345-23.5507-12.145-15.1758-9.541-29.963-23.162-36.7252-42.593C-.0069 151.429-.9007 140.8.9647 130.851c1.7294-10.007 5.8682-19.159 10.9009-27.379C22.2614 87.1305 36.66 74.5584 52.5548 64.9593c16.0697-9.3464 33.8687-15.7588 52.6782-18.0516 18.674-2.2735 38.902-.2915 56.739 8.8023 17.916 8.8801 31.868 24.5029 40.301 41.5053 4.314 8.5887 7.384 17.2357 9.813 26.5047 2.448 9.968 2.506 20.364.486 30.39-2.06 10.007-6.471 19.723-13.117 27.768-6.606 8.083-15.37 14.262-24.716 18.032-9.366 3.808-19.198 5.266-28.661 5.363-4.47.155-10.318-.311-15.079-1.496-4.936-1.186-9.56-2.935-13.913-5.033-17.2937-8.589-30.7985-21.86-40.3004-37.891-4.6052-8.064-8.4137-17.08-8.7441-27.418-.1554-5.11.9522-10.706 3.828-15.448 2.8175-4.819 7.2284-8.297 11.7171-10.473 9.1521-4.236 18.4594-4.683 27.2814-4.294 8.628.66 18.032 1.36 26.135 6.276 8.2 4.605 13.272 14.224 12.3 23.259-.719 8.841-6.023 17.644-14.321 20.403 7.928-3.634 11.834-12.514 11.659-20.481-.116-8.2-5.013-15.467-12.086-18.731-7.054-3.498-15.37-3.653-23.648-3.109-8.142.447-16.3612 1.982-22.4626 5.693-12.7469 7.209-8.0834 24.114.7773 36.531 8.9384 12.611 21.7043 23.279 35.3843 29.147 3.42 1.399 6.918 2.468 10.338 3.089 3.594.603 6.334.7 10.395.37 7.598-.486 14.807-2.216 21.219-5.014 12.825-5.615 21.472-17.158 23.687-30.779 1.166-6.762.7-13.816-.972-20.422-2.001-7.229-4.741-14.729-8.2-21.336-6.898-13.3879-17.138-24.2889-30.021-30.5263-25.805-12.9996-60.0038-7.5394-86.7996 7.7142-13.563 7.5199-25.8242 17.7211-34.2379 30.0021-8.3166 12.3-12.0669 26.601-8.3749 40.028 3.6725 13.544 14.4957 25.475 27.3787 34.841 6.4901 4.819 13.4076 8.685 21.0247 12.999 48.967 27.087 38.882 58.741 36.958 109.029zM121.944 27.3593c-1.594-4.5664-1.963-9.1133-2.04-13.6797.077-4.5663.446-9.1132 2.04-13.6796 1.593 4.5664 1.962 9.1133 2.04 13.6796-.078 4.5664-.447 9.1328-2.04 13.6797zM83.0234 35.7927c-2.7009-3.7502-4.236-7.8308-5.4796-12.0085-1.1076-4.1972-1.9237-8.4915-1.5545-13.0967 2.7203 3.7502 4.236 7.8308 5.4796 12.0085 1.1076 4.2166 1.9237 8.4915 1.5545 13.0967zM47.0364 52.8917c-3.7696-2.3123-6.5678-5.3436-9.1521-8.5692-2.4484-3.3227-4.6635-6.8009-5.9071-11.0564 3.7891 2.2929 6.5872 5.3436 9.1521 8.5692 2.4484 3.3228 4.6635 6.8204 5.9071 11.0564zM155.911 35.7927c-.428-4.3526.311-8.3943 1.34-12.3389 1.166-3.9056 2.624-7.753 5.266-11.2507.447 4.3721-.311 8.3943-1.34 12.3389-1.186 3.9251-2.643 7.7531-5.266 11.2507zM187.524 58.1001c1.341-4.372 3.654-7.9862 6.199-11.445 2.662-3.3616 5.557-6.5289 9.444-8.9578-1.341 4.372-3.653 7.9862-6.199 11.4256-2.681 3.381-5.577 6.5483-9.444 8.9772z" fill="#000"/></svg>