<svg width="401" height="108" fill="none" xmlns="http://www.w3.org/2000/svg"><path d="M4.7415 77.5455L7.866 22.894l54.9273-2.0339 3.2786 29.674L51.5205 81.363 20.6467 94.7083 4.7415 77.5455zM122.238 25.6336v-9.8679H81.8425v9.8679H96.163v42.1531h11.761V25.6336h14.314zM136.841 15.7657l-16.336 52.021h12.024l3.214-12.3893h15.861l3.201 12.3893h12.447l-16.335-52.021h-14.076zm6.935 8.899c1.392 5.428 2.778 11.5809 4.222 16.7779l1.245 4.812h-11.132l1.251-4.812c1.444-5.2034 2.836-11.2858 4.093-16.7779h.321zM198.254 15.7657l-6.14 24.2397c-1.482 5.691-2.592 10.9393-4.17 16.6816h-.321c-1.578-5.7423-2.618-10.9906-4.17-16.6816l-6.269-24.2397h-12.447l15.72 52.021h14.128l15.687-52.021h-12.018zM226.947 57.9253V45.9402h17.74v-9.8614h-17.74V25.6336h20.839v-9.8679h-32.6v52.021h33.396v-9.8614h-21.635zM297.735 31.9661c0-12.37-9.047-16.2004-20.076-16.2004h-18.735v52.021h11.761V49.0648h6.467l9.932 18.7219h13.159L288.47 46.9732c5.55-2.5087 9.265-7.3592 9.265-15.0071zm-27.05 7.7634V25.1074h6.018c6.185 0 9.508 1.7195 9.508 6.8652 0 5.1135-3.323 7.7633-9.508 7.7633h-6.018v-.0064zM337.424 15.7657v18.3755c0 6.1337.949 13.4222 1.501 18.9208h-.321l-5.145-11.4269-13.57-25.8694H307.84v52.021h11.208V49.3278c0-6.1337-.949-13.1014-1.501-18.8373h.321l5.146 11.3627 13.576 25.9399h12.049V15.7657h-11.215zM388.553 67.7867H401l-16.335-52.021h-14.07l-16.335 52.021h12.023l3.215-12.3957h15.86l3.195 12.3957zm-16.688-21.5321l1.245-4.812c1.443-5.2034 2.836-11.2858 4.093-16.7779h.321c1.392 5.428 2.778 11.5809 4.222 16.7779l1.244 4.812h-11.125z" fill="#fff"/><path d="M96.7983 78.3153h2.3995c1.7192 0 2.7842.6865 2.7842 1.989 0 1.219-1.013 2.0275-2.0014 2.252l-.0128.0578c.9242.2117 1.6422.7955 1.6422 1.8221 0 1.9954-1.591 2.8744-3.7274 2.8744h-2.8872l1.8029-8.9953zm1.5783 3.8689c1.7064 0 2.5214-.7186 2.5214-1.7259 0-.8213-.609-1.3025-1.9696-1.3025h-1.2383l-.6095 3.0348h1.296v-.0064zm-.5903 4.2795c1.7003 0 2.7847-.5839 2.7847-1.9762 0-.911-.7316-1.5334-2.0533-1.5334H96.933l-.7122 3.5096h1.5655zM103.047 85.0457c0-2.5471 1.752-4.5682 3.593-4.5682.713 0 1.296.3978 1.617 1.0073h.045l.27-.8405h.853l-1.335 6.6599h-.866l.103-.9881h-.045c-.655.6801-1.482 1.1485-2.316 1.1485-1.174 0-1.919-.8534-1.919-2.4189zm4.382.2695l.61-2.9706c-.391-.7058-.86-.9881-1.36-.9881-1.328 0-2.554 1.6874-2.554 3.5352 0 1.1485.469 1.6874 1.219 1.6874.7.0065 1.437-.3977 2.085-1.2639zM111.606 80.6443h.86l-.16 1.2704h.051c.539-.8084 1.245-1.4372 2.066-1.4372.244 0 .449.0385.635.1219l-.366.9368c-.141-.077-.333-.1091-.571-.1091-.66 0-1.398.5839-1.969 1.6746l-.828 4.196h-1.046l1.328-6.6534zM114.949 85.0457c0-2.5471 1.752-4.5682 3.593-4.5682.712 0 1.296.3978 1.617 1.0073h.045l.269-.8405h.854l-1.348 6.6534h-.86l.103-.988h-.045c-.654.6801-1.482 1.1484-2.316 1.1484-1.168.0065-1.912-.8469-1.912-2.4124zm4.382.2695l.61-2.9706c-.392-.7058-.86-.9881-1.367-.9881-1.328 0-2.553 1.6874-2.553 3.5352 0 1.1485.468 1.6874 1.219 1.6874.705.0065 1.443-.3977 2.091-1.2639zM122.366 86.5984c0-.154.026-.34.077-.5646l1.694-8.4883h1.052l-1.707 8.5332c-.025.1412-.025.2118-.025.2695 0 .1668.083.2502.224.2502.064 0 .103 0 .231-.0449l.007.802c-.18.0642-.372.1155-.655.1155-.596-.0064-.898-.3208-.898-.8726zM127.531 77.5455h1.046l-.655 3.2208-.224.8405h.051c.757-.648 1.482-1.1292 2.29-1.1292 1.123 0 1.585.6352 1.585 1.6617 0 .3208-.025.5518-.109.9175l-.847 4.2474h-1.046l.828-4.1062c.071-.3529.109-.5454.109-.7764 0-.6801-.308-1.0265-.988-1.0265-.52 0-1.161.3657-2.002 1.1997l-.936 4.7094h-1.046l1.944-9.7587zM132.798 84.7891c0-2.5215 1.771-4.3116 3.593-4.3116 1.437 0 2.374 1.0138 2.374 2.6755 0 2.5215-1.771 4.3116-3.593 4.3116-1.437 0-2.374-1.0138-2.374-2.6755zm4.909-1.5719c0-1.2062-.507-1.8671-1.425-1.8671-1.225 0-2.425 1.5206-2.425 3.3748 0 1.2062.507 1.8671 1.424 1.8671 1.226.0064 2.426-1.5142 2.426-3.3748zM147.921 80.1504l.52-2.6049h1.052l-1.97 9.7587h-.866l.103-.9881h-.045c-.655.6801-1.482 1.1485-2.316 1.1485-1.175 0-1.919-.8469-1.919-2.4124 0-2.5472 1.752-4.5682 3.593-4.5682.712 0 1.258.3849 1.572.9752h.045l.231-1.3088zm-1.046 5.1648l.61-2.9706c-.392-.7057-.86-.988-1.36-.988-1.329 0-2.554 1.6874-2.554 3.5352 0 1.1484.468 1.6874 1.219 1.6874.699.0064 1.424-.3978 2.085-1.264zM153.342 80.4775c1.495 0 2.066 1.0394 2.066 2.4124 0 .5262-.154 1.0523-.243 1.2961h-4.318c-.244 1.7195.648 2.4509 1.803 2.4509.519 0 1.071-.2695 1.494-.5774l.405.6929c-.533.3849-1.283.7122-2.15.7122-1.565 0-2.605-1.0009-2.605-2.7846-.006-2.5022 1.816-4.2025 3.548-4.2025zm1.091 3.0027c.045-.2117.071-.4299.071-.6801 0-.7571-.327-1.4757-1.29-1.4757-.969 0-1.931.8534-2.271 2.1622h3.49v-.0064zM162.646 78.3153h1.225l1.039 8.9889h-1.103l-.468-5.1585c-.077-.9496-.174-1.9056-.244-2.9257h-.058c-.475 1.033-.937 1.9376-1.437 2.9257l-2.656 5.1585h-1.181l4.883-8.9889zm-2.49 5.351h3.946l-.192.8276h-3.966l.212-.8276zM166.091 80.6444h1.046l.481 3.8496c.077.648.135 1.3409.199 1.9889h.058c.321-.6608.641-1.3281.981-1.9889l1.964-3.8496h1.045l-3.548 6.6598h-1.257l-.969-6.6598zM175.433 80.4775c1.495 0 2.066 1.0394 2.066 2.4124 0 .5262-.154 1.0523-.244 1.2961h-4.318c-.244 1.7195.648 2.4509 1.803 2.4509.519 0 1.071-.2695 1.495-.5774l.404.6929c-.533.3849-1.283.7122-2.149.7122-1.566 0-2.605-1.0009-2.605-2.7846-.007-2.5022 1.815-4.2025 3.548-4.2025zm1.097 3.0027c.045-.2117.07-.4299.07-.6801 0-.7571-.327-1.4757-1.283-1.4757-.969 0-1.931.8534-2.271 2.1622h3.484v-.0064zM179.699 80.6443h.86l-.102.9945h.057c.751-.6544 1.502-1.1613 2.323-1.1613 1.123 0 1.585.6352 1.585 1.6554 0 .3208-.032.5517-.109.9174l-.847 4.2474h-1.046l.827-4.1062c.071-.3529.11-.5454.11-.7763 0-.6737-.308-1.0266-.989-1.0266-.519 0-1.161.3657-2.001 1.1998l-.937 4.7093h-1.046l1.315-6.6534zM186.09 85.9825c0-.2631.038-.4812.077-.7314l.776-3.7534h-.982l.154-.7892 1.04-.0641.5-1.8414h.886l-.366 1.8414h1.687l-.173.8533h-1.707l-.782 3.8047c-.026.1668-.045.3208-.045.4876 0 .5518.218.8277.847.8277.269 0 .5-.1091.699-.2053l.231.757c-.295.1348-.731.3016-1.257.3016-1.155-.0064-1.585-.6609-1.585-1.4885zM194.918 87.2978h-.86l.103-1.0138h-.051c-.732.6545-1.495 1.1806-2.297 1.1806-1.123 0-1.579-.6352-1.579-1.6554 0-.3143.032-.5517.109-.9174l.854-4.2474h1.046l-.828 4.1062c-.071.3529-.109.5454-.109.7763 0 .6801.308 1.0266.988 1.0266.513 0 1.155-.3657 1.97-1.1998l.936-4.7093h1.046l-1.328 6.6534zM198.434 80.6443h.866l-.16 1.2704h.058c.539-.8084 1.244-1.4372 2.066-1.4372.243 0 .449.0385.635.1219l-.366.9368c-.141-.077-.34-.1091-.577-.1091-.661 0-1.399.5839-1.97 1.6746l-.828 4.196h-1.046l1.322-6.6534zM205.299 80.4775c1.495 0 2.066 1.0394 2.066 2.4124 0 .5262-.154 1.0523-.244 1.2961h-4.318c-.243 1.7195.648 2.4509 1.803 2.4509.52 0 1.072-.2695 1.495-.5774l.404.6929c-.532.3849-1.283.7122-2.149.7122-1.566 0-2.605-1.0009-2.605-2.7846 0-2.5022 1.816-4.2025 3.548-4.2025zm1.097 3.0027c.045-.2117.071-.4299.071-.6801 0-.7571-.327-1.4757-1.29-1.4757-.969 0-1.931.8534-2.271 2.1622h3.49v-.0064zM209.797 78.649c0-.4491.366-.802.795-.802.347 0 .668.2374.668.6352 0 .4555-.366.7827-.796.7827-.353 0-.667-.2245-.667-.6159zm-.212 1.9954h1.046l-1.335 6.6598h-1.045l1.334-6.6598zM212.819 80.6443h.859l-.16 1.2704h.058c.539-.8084 1.245-1.4372 2.066-1.4372.244 0 .449.0385.635.1219l-.366.9368c-.141-.077-.34-.1091-.577-.1091-.661 0-1.399.5839-1.97 1.6746l-.828 4.196h-1.045l1.328-6.6534zM216.149 84.7891c0-2.5215 1.77-4.3116 3.593-4.3116 1.437 0 2.374 1.0138 2.374 2.6755 0 2.5215-1.771 4.3116-3.593 4.3116-1.431 0-2.374-1.0138-2.374-2.6755zm4.914-1.5719c0-1.2062-.507-1.8671-1.424-1.8671-1.225 0-2.425 1.5206-2.425 3.3748 0 1.2062.507 1.8671 1.424 1.8671 1.219.0064 2.425-1.5142 2.425-3.3748zM222.622 86.207l.655-.5197c.404.5775 1.014.9688 1.713.9688.757 0 1.411-.5068 1.411-1.1035 0-.4748-.288-.7635-1.219-1.2704-1.026-.5582-1.52-1.065-1.52-1.8157 0-1.1741 1.039-1.989 2.277-1.989.815 0 1.476.3722 1.964.8854l-.603.5839c-.347-.3657-.783-.6544-1.373-.6544-.713 0-1.264.4812-1.264 1.0458 0 .5582.577.8405 1.18 1.1805 1.194.648 1.559 1.1613 1.559 1.8863 0 1.2511-1.058 2.0596-2.489 2.0596-.905 0-1.848-.5582-2.291-1.2576zM232.131 87.9265l-.417 2.1815h-1.046l1.899-9.4636h.86l-.083.8789h.044c.674-.5646 1.463-1.0393 2.297-1.0393 1.168 0 1.919.8597 1.919 2.4124 0 2.5471-1.752 4.5682-3.593 4.5682-.693 0-1.258-.3978-1.598-.9624h-.025l-.257 1.4243zm1.116-5.4728l-.635 3.1759c.379.6865.834.9496 1.354.9496 1.334 0 2.554-1.6874 2.554-3.5353 0-1.1356-.475-1.6874-1.22-1.6874-.615.0064-1.43.4107-2.053 1.0972zM238.675 85.0457c0-2.5471 1.752-4.5682 3.593-4.5682.712 0 1.296.3978 1.617 1.0073h.045l.263-.8405h.853l-1.334 6.6599h-.86l.103-.9881h-.045c-.655.6801-1.482 1.1485-2.316 1.1485-1.175 0-1.919-.8534-1.919-2.4189zm4.382.2695l.61-2.9706c-.392-.7058-.86-.9881-1.36-.9881-1.328 0-2.554 1.6874-2.554 3.5352 0 1.1485.468 1.6874 1.219 1.6874.699.0065 1.437-.3977 2.085-1.2639zM247.234 80.6443h.86l-.16 1.2704h.057c.539-.8084 1.245-1.4372 2.066-1.4372.244 0 .449.0385.635.1219l-.365.9368c-.141-.077-.34-.1091-.578-.1091-.661 0-1.398.5839-1.969 1.6746l-.828 4.196h-1.046l1.328-6.6534zM250.577 85.0457c0-2.5471 1.751-4.5682 3.593-4.5682.712 0 1.296.3978 1.617 1.0073h.045l.263-.8405h.853l-1.335 6.6599h-.859l.102-.9881h-.045c-.654.6801-1.482 1.1485-2.309 1.1485-1.181 0-1.925-.8534-1.925-2.4189zm4.382.2695l.61-2.9706c-.392-.7058-.86-.9881-1.361-.9881-1.334 0-2.553 1.6874-2.553 3.5352 0 1.1485.468 1.6874 1.219 1.6874.699.0065 1.437-.3977 2.085-1.2639zM262.293 78.3153h1.668c2.489 0 3.811 1.3025 3.811 3.5032 0 3.2721-1.822 5.4792-4.864 5.4792h-2.412l1.797-8.9824zm.615 8.1163c2.33 0 3.78-1.8671 3.78-4.5425 0-1.6939-.956-2.7012-2.759-2.7012h-.745l-1.45 7.2501h1.174v-.0064zM273.585 87.2978h-.86l.103-1.0138h-.052c-.731.6545-1.488 1.1806-2.297 1.1806-1.122 0-1.578-.6352-1.578-1.6554 0-.3143.032-.5517.109-.9174l.854-4.2474h1.045l-.827 4.1062c-.071.3529-.109.5454-.109.7763 0 .6801.308 1.0266.988 1.0266.513 0 1.155-.3657 1.969-1.1998l.937-4.7093h1.046l-1.328 6.6534zM277.107 80.6443h.86l-.103.9945h.058c.751-.6544 1.501-1.1613 2.323-1.1613 1.122 0 1.578.6352 1.578 1.6554 0 .3208-.032.5517-.109.9174l-.847 4.2474h-1.052l.827-4.1062c.071-.3529.109-.5454.109-.7763 0-.6737-.307-1.0266-.988-1.0266-.519 0-1.161.3657-2.001 1.1998l-.937 4.7093h-1.046l1.328-6.6534zM282.522 89.4471l.501-.725c.507.4363 1.129.7892 1.873.7892 1.142 0 1.816-.77 2.105-1.9826l.34-1.4179c-.7.6865-1.463 1.1228-2.31 1.1228-1.136 0-1.931-.802-1.931-2.3483 0-2.4381 1.719-4.4078 3.509-4.4078.706 0 1.29.3978 1.604 1.0073h.045l.263-.8405h.866l-1.405 6.9678c-.365 1.7644-1.45 2.7589-3.124 2.7589-.892 0-1.688-.385-2.336-.9239zm4.889-4.2602l.578-2.8423c-.398-.7058-.847-.9881-1.354-.9881-1.277 0-2.47 1.6425-2.47 3.3748 0 1.0843.455 1.6233 1.193 1.6233.629 0 1.418-.3978 2.053-1.1677zM293.885 80.4775c1.495 0 2.066 1.0394 2.066 2.4124 0 .5262-.154 1.0523-.244 1.2961h-4.318c-.244 1.7195.648 2.4509 1.803 2.4509.52 0 1.072-.2695 1.495-.5774l.404.6929c-.532.3849-1.283.7122-2.149.7122-1.566 0-2.605-1.0009-2.605-2.7846 0-2.5022 1.816-4.2025 3.548-4.2025zm1.097 3.0027c.045-.2117.071-.4299.071-.6801 0-.7571-.327-1.4757-1.283-1.4757-.969 0-1.932.8534-2.272 2.1622h3.484v-.0064zM296.939 84.7891c0-2.5215 1.771-4.3116 3.593-4.3116 1.437 0 2.374 1.0138 2.374 2.6755 0 2.5215-1.771 4.3116-3.593 4.3116-1.431 0-2.374-1.0138-2.374-2.6755zm4.908-1.5719c0-1.2062-.507-1.8671-1.424-1.8671-1.225 0-2.425 1.5206-2.425 3.3748 0 1.2062.507 1.8671 1.424 1.8671 1.226.0064 2.425-1.5142 2.425-3.3748zM305.209 80.6443h.86l-.103.9945h.058c.751-.6544 1.501-1.1613 2.323-1.1613 1.122 0 1.578.6352 1.578 1.6554 0 .3208-.032.5517-.109.9174l-.847 4.2474h-1.052l.827-4.1062c.071-.3529.11-.5454.11-.7763 0-.6737-.308-1.0266-.989-1.0266-.519 0-1.161.3657-2.001 1.1998l-.937 4.7093h-1.046l1.328-6.6534zM310.605 86.207l.655-.5197c.404.5775 1.013.9688 1.713.9688.757 0 1.411-.5068 1.411-1.1035 0-.4748-.289-.7635-1.219-1.2704-1.026-.5582-1.52-1.065-1.52-1.8157 0-1.1741 1.039-1.989 2.284-1.989.814 0 1.475.3722 1.963.8854l-.61.5839c-.346-.3657-.782-.6544-1.373-.6544-.712 0-1.264.4812-1.264 1.0458 0 .5582.578.8405 1.181 1.1805 1.193.648 1.559 1.1613 1.559 1.8863 0 1.2511-1.059 2.0596-2.489 2.0596-.905 0-1.848-.5582-2.291-1.2576zM318.997 85.3665c0-3.1566 4.992-3.3876 4.992-5.7038 0-.4106-.199-.7635-.674-.7635-.783 0-1.386.7571-1.386 1.8286 0 1.636 1.129 3.6057 2.4 4.7991.577.539 1.174.9175 1.674 1.0972l-.43.8405c-.635-.1989-1.328-.6352-1.982-1.2832-1.399-1.3731-2.573-3.6058-2.573-5.4023 0-1.527 1.097-2.6306 2.361-2.6306.982 0 1.469.6352 1.469 1.4693 0 2.7332-4.818 3.2401-4.818 5.614 0 .8405.584 1.4051 1.418 1.4051.757 0 1.553-.417 2.239-1.0651.905-.8597 1.54-1.8863 2.079-3.0989h.969c-.629 1.341-1.405 2.6049-2.425 3.6058-.867.8469-1.893 1.3859-3.067 1.3859-1.348 0-2.246-.8277-2.246-2.0981zM331.662 78.3153h1.669c2.489 0 3.811 1.3025 3.811 3.5032 0 3.2721-1.822 5.4792-4.864 5.4792h-2.412l1.796-8.9824zm.61 8.1163c2.329 0 3.779-1.8671 3.779-4.5425 0-1.6939-.956-2.7012-2.759-2.7012h-.744l-1.45 7.2501h1.174v-.0064zM339.24 80.6443h.866l-.161 1.2704h.058c.539-.8084 1.245-1.4372 2.066-1.4372.244 0 .449.0385.635.1219l-.365.9368c-.142-.077-.334-.1091-.578-.1091-.661 0-1.399.5839-1.97 1.6746l-.827 4.196h-1.046l1.322-6.6534zM342.582 85.0457c0-2.5471 1.752-4.5682 3.593-4.5682.712 0 1.296.3978 1.617 1.0073h.045l.269-.8405h.854l-1.335 6.6599h-.866l.103-.9881h-.045c-.655.6801-1.482 1.1485-2.31 1.1485-1.18 0-1.925-.8534-1.925-2.4189zm4.389.2695l.609-2.9706c-.391-.7058-.853-.9881-1.36-.9881-1.328 0-2.553 1.6874-2.553 3.5352 0 1.1485.468 1.6874 1.219 1.6874.699.0065 1.43-.3977 2.085-1.2639zM349.37 89.4471l.494-.725c.507.4363 1.13.7892 1.874.7892 1.142 0 1.816-.77 2.104-1.9826l.34-1.4179c-.699.6865-1.462 1.1228-2.309 1.1228-1.136 0-1.932-.802-1.932-2.3483 0-2.4381 1.72-4.4078 3.51-4.4078.706 0 1.29.3978 1.604 1.0073h.045l.269-.8405h.867l-1.406 6.9678c-.365 1.7644-1.45 2.7589-3.124 2.7589-.892 0-1.688-.385-2.336-.9239zm4.889-4.2602l.584-2.8423c-.397-.7058-.847-.9881-1.353-.9881-1.277 0-2.471 1.6425-2.471 3.3748 0 1.0843.456 1.6233 1.194 1.6233.616 0 1.411-.3978 2.046-1.1677zM357.198 84.7891c0-2.5215 1.771-4.3116 3.593-4.3116 1.437 0 2.374 1.0138 2.374 2.6755 0 2.5215-1.771 4.3116-3.593 4.3116-1.431 0-2.374-1.0138-2.374-2.6755zm4.915-1.5719c0-1.2062-.507-1.8671-1.425-1.8671-1.225 0-2.425 1.5206-2.425 3.3748 0 1.2062.507 1.8671 1.424 1.8671 1.219.0064 2.426-1.5142 2.426-3.3748zM365.468 80.6443h.86l-.103.9945h.058c.751-.6544 1.501-1.1613 2.323-1.1613 1.123 0 1.578.6352 1.578 1.6554 0 .3208-.032.5517-.109.9174l-.847 4.2474h-1.046l.828-4.1062c.071-.3529.109-.5454.109-.7763 0-.6737-.308-1.0266-.988-1.0266-.52 0-1.161.3657-2.002 1.1998l-.937 4.7093h-1.045l1.321-6.6534zM370.864 86.207l.655-.5197c.404.5775 1.007.9688 1.713.9688.757 0 1.405-.5068 1.405-1.1035 0-.4748-.289-.7635-1.219-1.2704-1.027-.5582-1.521-1.065-1.521-1.8157 0-1.1741 1.039-1.989 2.278-1.989.815 0 1.475.3722 1.963.8854l-.603.5839c-.346-.3657-.783-.6544-1.373-.6544-.712 0-1.264.4812-1.264 1.0458 0 .5582.577.8405 1.181 1.1805 1.193.648 1.559 1.1613 1.559 1.8863 0 1.2511-1.059 2.0596-2.49 2.0596-.898 0-1.841-.5582-2.284-1.2576zM378.993 85.9825l.693-.5518c.398.5967.924 1.1677 1.944 1.1677 1.142 0 2.175-.9239 2.175-2.3418 0-1.1164-.629-1.6618-1.578-1.6618-.565 0-.898.1412-1.463.4491l-.449-.3657 1.084-4.1126h4.106l-.186.8982h-3.182l-.712 2.5792c.314-.1604.693-.2758 1.142-.2758 1.315 0 2.297.7763 2.297 2.3033 0 2.0788-1.572 3.3941-3.292 3.3941-1.199 0-2.046-.6545-2.579-1.4821zM387.899 78.3153h4.953l-.186.8983h-3.895l-.577 2.9128h3.298l-.18.8983h-3.285l-.693 3.3748h4.023l-.186.8982h-5.075l1.803-8.9824z" fill="#D8D8D8"/><path d="M0 .8678V107.867h28.8078c22.4753 0 40.6903-18.221 40.6903-40.6898V.8678H0zm9.579 54.4013c-.2694-2.0082.3016-3.8753 1.4116-5.3125.5325-.6801.4106-1.6553-.2695-2.1878-1.033-.8084-1.7002-2.066-1.7002-3.4775 0-1.5463.7956-2.9064 1.9954-3.6956.5004-.3272.6801-1.0073.4106-1.5398-.3721-.7315-.5774-1.5656-.5774-2.4445 0-3.0027 2.4316-5.4344 5.4343-5.4344.1219 0 .2438.0128.3657.0192.308-2.5279 2.4574-4.4912 5.0687-4.4912 1.1163 0 2.1493.3529 2.9834.9624.2053.1476.4363.2118.6673.2118.3913 0 .7827-.1925 1.0394-.5261 1.1356-1.4565 2.9128-2.3996 4.9082-2.3996 2.0724 0 3.9074 1.0201 5.043 2.5792.1668-.0192.3336-.0321.5004-.0321 1.8671 0 3.439 1.2383 3.9459 2.945a8.1035 8.1035 0 011.1228-.077c.3593 0 .725.0256 1.0971.0706 3.8111.4876 6.8651 3.6122 7.2629 7.4361.5261 5.0494-3.4197 9.3096-8.36 9.3096-1.5142 0-2.9386-.4042-4.1704-1.1035a1.1684 1.1684 0 00-.5839-.154c-.1732 0-.3464.0385-.5133.1091-.6801.2951-1.4243.4555-2.2071.4555a5.5649 5.5649 0 01-2.4445-.5646 1.0467 1.0467 0 00-.4555-.1027c-.3272 0-.6416.1476-.8277.4299-.3528.5197-.7891.9688-1.2896 1.3409-.4106.308-.5518.8726-.3529 1.3474.2695.6544.4235 1.373.4235 2.1301 0 3.0861-2.5022 5.5884-5.5883 5.5884a5.2861 5.2861 0 01-.6352-.0385c-.9688 2.7588-3.593 4.7414-6.6855 4.7414a7.4161 7.4161 0 01-.9175-.0578c-3.131-.3849-5.6782-2.9064-6.1016-6.0374zm20.2747 2.329c.4619.0128.8405.3914.8405.8533v7.372c0 .4748-.385.8598-.8598.8533-1.1677-.0128-3.2978-.0449-4.8762-.1539a.8576.8576 0 01-.802-.8598c.0257-2.4445.0321-5.8899.0321-7.5516 0-.0706.0129-.1348.0257-.2053.8084-.0321 1.5783-.2118 2.2905-.5069 1.033.0962 2.1429.1604 3.3492.1989zm-6.9165 2.0916c0 1.6361-.0064 3.516-.0257 5.5434-.0064.5646-.5197.9817-1.0714.8726-2.0788-.417-4.0614-1.1292-5.7359-2.3611a3.7567 3.7567 0 00-.6031-.34c-.3337-.154-.539-.4941-.5262-.8598v-.0834c.1797.0385.3658.0706.5518.0963.3529.0449.7186.0641 1.0715.0641 2.4894 0 4.7863-1.1099 6.339-2.9321zm-.7635 23.8483c-.0513.5646-.6031.9496-1.1549.8084-4.4783-1.11-7.295-2.8615-7.3784-4.504-.0513-1.033.1476-3.1824.4171-5.9348.032-.3657.4362-.5775.757-.3914 1.2768.7378 4.1512 2.2648 7.0448 2.9.4363.0963.7443.5005.7186.9496-.0962 2.1044-.231 4.1832-.4042 6.1722zm8.5205 1.0586c0 .4941-.4043.8918-.8983.879-2.0274-.0641-3.933-.2438-5.6781-.5133-.4556-.0705-.77-.4812-.7251-.9431.1797-2.0146.3208-4.1319.4299-6.2749.0257-.5068.4748-.8918.9817-.8276 1.4628.186 3.131.3144 5.0301.3593.4812.0128.8662.3978.8662.879v6.4416h-.0064zm7.8211.3657c-1.7388.2695-3.6379.4556-5.6654.5133-.494.0128-.9046-.3913-.9046-.8854V78.155c0-.4812.3914-.8726.8726-.8854 1.8927-.045 3.5608-.1733 5.0173-.3593.5068-.0642.9624.3208.988.834.1091 2.1366.2438 4.2539.4299 6.2621.0385.4747-.2823.8854-.7378.9559zm10.4773-5.1199c-.0834 1.6489-2.9193 3.4069-7.4233 4.5168-.5326.1284-1.0587-.2309-1.1036-.7763-.1732-2.0082-.3079-4.1191-.417-6.2492-.0193-.4299.2695-.8148.6865-.9046 2.8551-.6224 5.6846-2.1045 6.9999-2.8616.3593-.2053.8084.0257.8469.4427.2694 2.7012.4619 4.812.4106 5.8322zm-1.45-7.5966c-1.9441 1.2062-5.5178 3.7983-16.2261 3.7983-10.7083 0-14.2756-2.5921-16.2261-3.7983-1.944-1.2062-1.6232-4.042-1.6553-6.4545-.0128-1.1292.4042-1.4307.8533-1.4307.5133 0 1.0651.3913 1.0651.3913 4.2217 3.1054 10.0025 3.1824 15.1289 3.1824h1.6682c5.1264 0 10.9008-.077 15.1289-3.1824 0 0 .5518-.3913 1.0651-.3913.4491 0 .8726.3015.8533 1.4307-.0321 2.4189.2887 5.2483-1.6553 6.4545zm-15.5973-6.4481v-7.3078c0-.4812.3914-.8726.8726-.879 1.7323-.0256 3.2785-.1219 4.6708-.2566.5133-.0513.9624.3529.9624.8726 0 1.6425.0064 4.998.0321 7.4169.0064.4683-.3593.8469-.8213.8854-1.5655.109-3.6635.1475-4.8312.154a.883.883 0 01-.8854-.8855zm15.7128-3.2336c.0192.3593-.1925.6865-.5197.8405-.3016.1347-.5133.2759-.5839.3272-1.6938 1.2447-3.6956 1.9633-5.7872 2.3803-.5326.1091-1.033-.3015-1.0394-.8469-.0193-2.5151-.0257-5.9669-.0257-7.4618 0-.4235.308-.7763.725-.8469 2.9899-.5261 5.0238-1.2832 6.4866-1.9954.3208-.154.6865.0834.6737.4427-.0257.8854-.0449 1.758-.0449 2.6242 0 1.4821.0449 3.0091.1155 4.5361zm.9559-9.9897c-2.0274 1.2062-5.7487 3.7982-16.9125 3.7982-1.1998 0-2.3098-.032-3.3428-.0834 1.4693-1.2575 2.406-3.1246 2.406-5.2034 0-.8725-.1668-1.7259-.4876-2.5343.1155-.0898.2117-.1924.3208-.2887h1.9697c2.1301 0 4.3757-.0192 6.5764-.231.8983.2695 1.8414.4171 2.791.4171 2.7332 0 5.3445-1.1677 7.1795-3.1952.1604-.1796.3015-.3657.4491-.5518.4235.0449.7956.385.7828 1.4244-.0449 2.406.2951 5.2354-1.7324 6.4481zm2.3547 17.6761c-.3144.2117-.7378-.0514-.6737-.4299.1669-1.0137.1604-2.0724.154-3.0412 0-.3272-.0064-.6544 0-.9752.0064-.616-.0898-1.1228-.2887-1.5335-.0898-.1796-.0321-.3913.1283-.5197 3.6186-2.8615 7.2886-6.7496 6.8459-10.2078-.1989-1.5399-.802-2.0724-1.2447-2.3354-.9752-.5903-2.5087-.6288-3.9972-.4492-.2887.0321-.5325-.2181-.4812-.5068.1925-1.0458.1861-2.1494.1797-3.1503 0-.3272-.0064-.6544 0-.9752 0-.1989-.0064-.385-.0321-.5582-.0321-.2438.1476-.4684.3914-.4876 2.2199-.1733 4.7286.0449 6.8138 1.2896 1.5398.9175 3.4774 2.791 3.9458 6.4545.9752 7.603-6.91 14.1665-11.7413 17.4259z" fill="#B52926"/><path d="M18.9529 50.1684c-.154 0-.308-.077-.3978-.2118-.4427-.6672-1.1164-1.1228-1.8991-1.2767-.7828-.154-1.5848 0-2.2456.4427-.2182.1475-.5197.0898-.6609-.1348-.1475-.2181-.0898-.5133.1348-.6608.879-.5839 1.9312-.7892 2.9642-.5839 1.0329.2117 1.9248.8084 2.5086 1.6874.1476.2182.0834.5133-.1347.6609a.5055.5055 0 01-.2695.077zM21.3589 36.6755c-.1219 0-.2374-.0321-.3465-.0898-.3464-.1925-.4683-.6288-.2759-.9752 1.9569-3.5096 6.4032-4.7735 9.9128-2.8167.3464.1925.4683.6288.2758.9753-.1924.3464-.6287.4683-.9752.2759-2.8166-1.572-6.3903-.5582-7.9622 2.2648-.1284.231-.3722.3657-.6288.3657zM42.3327 39.428c-.1155 0-.231-.0449-.3272-.1283-.9688-.9047-2.4253-.9303-3.2401-.0513-.1797.1924-.4812.2053-.6737.0256-.1925-.1796-.2053-.4812-.0256-.6737 1.1741-1.2575 3.2336-1.2575 4.5874.0065.1925.1796.2053.4812.0257.6736-.0899.0963-.2182.1476-.3465.1476zM36.013 31.6582c-.1861 0-.3593-.1091-.4427-.2887-.5197-1.219-1.835-1.835-2.9385-1.3666-.2439.1026-.5197-.0128-.6288-.2502-.1027-.2438.0064-.5197.2502-.6288 1.5848-.6737 3.4646.1604 4.1897 1.8671.1026.2438-.0129.5261-.2503.6287a.4298.4298 0 01-.1796.0385zM22.4753 48.7825l-.0962-.0065c-.2567-.0513-.4235-.3079-.3721-.5646.1668-.8276.6736-1.527 1.4243-1.9761.7379-.4427 1.6233-.5838 2.4958-.4042.2567.0513.4235.308.3722.5646-.0514.2566-.3016.4235-.5646.3721-.6352-.1347-1.2832-.0256-1.8158.2888-.5197.3079-.8661.7891-.9816 1.3473-.0385.2246-.2374.3786-.462.3786zM34.1459 38.8185l-.1155-.0321c-.1155-.0642-.154-.2117-.0898-.3272.5838-1.0458 1.9825-1.3859 3.1117-.7571.1155.0641.154.2117.0899.3272-.0642.1155-.2118.154-.3208.0898-.9047-.5068-2.0082-.2438-2.4638.571-.0513.0835-.1283.1284-.2117.1284zM17.0859 36.1366c-.1283 0-.2374-.1027-.2374-.231-.0192-.5839.2118-1.1421.648-1.5655.4299-.4171 1.0138-.6609 1.6361-.6801.1155-.0128.2438.0962.2438.231.0064.1347-.0962.2438-.2309.2438-.5069.0128-.9753.2117-1.3153.5453-.3401.3337-.5197.7635-.5069 1.2127.0064.1347-.0962.2438-.231.2438h-.0064zM29.751 38.3436c-.0769 0-.1475-.0384-.1988-.1026-.5903-.8469-1.7003-1.0971-2.4702-.5646a.2377.2377 0 01-.3336-.0578.2377.2377 0 01.0577-.3336c.9817-.6865 2.3868-.385 3.131.6801a.2378.2378 0 01-.0577.3336l-.1284.0449zM39.7472 36.8102a.2368.2368 0 01-.186-.0898c-.3144-.3978-.7443-.6544-1.2191-.7378-.4684-.077-.9175.0385-1.2704.3144-.1026.0834-.2566.0641-.3336-.0385-.0834-.1027-.0641-.2503.0385-.3337.462-.3593 1.0458-.5068 1.6489-.4106.5967.0963 1.1357.4171 1.5206.9111.0834.1026.0642.2566-.0385.3336l-.1604.0513z" fill="#B52926"/></svg>