<svg width="94" height="150" fill="none" xmlns="http://www.w3.org/2000/svg"><path d="M93.9963 26.9939c0-1.1625-.4458-1.8904-1.5203-2.47C78.0032 16.7069 47.8552.2725 47.8552.2725S47.2851 0 46.9963 0c-.285 0-.8588.2725-.8588.2725S15.9895 16.707 1.5204 24.524C.4459 25.1035 0 25.8314 0 26.9939c.011 8.0309.011 40.1511 0 48.182 0 1.1626.4459 1.8905 1.5204 2.47C15.9932 85.463 46.141 101.897 46.141 101.897s.5702.273.8589.273c.2851 0 .8589-.273.8589-.273s30.1479-16.434 44.6207-24.2511C93.5541 77.0664 94 76.3385 94 75.1759c-.0183-8.0309-.0183-40.1545-.0037-48.182zM55.7421 12.0464c9.7217 5.2711 19.4433 10.5388 29.1503 15.7996-.1535.3829-.4422.4071-.6652.5037-2.964 1.2453-5.9389 2.4734-8.8993 3.7325-.5445.2312-.9137.2312-1.3486-.2345C67.9636 25.414 61.926 19.001 55.892 12.5811c-.1023-.1104-.1864-.2381-.2778-.3588a2.2632 2.2632 0 01.1279-.1759zm23.0871 31.8131c1.8858 1.6283 2.9895 3.8533 3.1028 6.2647.1133 2.4113-.7748 4.7192-2.4998 6.5027-1.7251 1.78-4.0824 2.8218-6.637 2.9288-2.551.1104-4.9997-.7314-6.8892-2.3596-1.8859-1.6283-2.9896-3.8533-3.1029-6.2647-.2376-4.9779 3.8631-9.2107 9.1369-9.4315a9.298 9.298 0 01.4385-.0103c2.3975 0 4.6745.8348 6.4507 2.3699zM46.4079 8.5035c.2376-.2553.424-.3657.5994-.3691.1791.0069.3655.1173.603.3691 7.4192 7.9205 14.8566 15.8238 22.2867 23.734.0621.0655.095.1552.2266.3863H23.8947c.1316-.2311.1645-.3208.2266-.3863 7.4301-7.9102 14.8675-15.8135 22.2866-23.734zm-8.1354 3.5429c.0438.0586.0877.1138.1315.1724-.0913.1208-.1754.2484-.2777.3588-6.0303 6.4199-12.0716 12.8329-18.0873 19.2666-.435.4657-.8041.4657-1.3486.2346-2.9604-1.2592-5.9353-2.4838-8.8993-3.7326-.223-.0931-.5154-.1207-.6652-.5036 9.7033-5.2574 19.425-10.5285 29.1466-15.7962zM21.6251 41.4896c.1462 0 .2924.0034.4386.0103 5.2738.2243 9.3744 4.4536 9.1368 9.4315-.1133 2.4114-1.217 4.6364-3.1028 6.2647-1.8859 1.6282-4.3382 2.4665-6.8892 2.3596-2.5547-.107-4.912-1.1488-6.637-2.9288-1.7251-1.7801-2.6132-4.0914-2.4999-6.5027.1133-2.4114 1.217-4.6364 3.1029-6.2647 1.7799-1.5351 4.0568-2.3699 6.4506-2.3699zM6.8965 63.4849c-.0036-10.6044-.0073-21.2088.0037-31.8132 0-.9279.1608-.9969 1.122-.5968 2.8799 1.2005 5.7452 2.439 8.6471 3.5877.9356.3691 1.0964.7659.7602 1.6593l-1.0965 2.9185c-1.2755.5347-2.4633 1.2626-3.5231 2.1767-2.5803 2.2251-4.086 5.2643-4.2395 8.5622-.1024 2.1871.3983 4.3087 1.4326 6.2026-.6322 1.7007-1.2682 3.4014-1.9004 5.1021-.329.8831-.6615 1.7628-1.0014 2.6701-.2486-.1622-.2047-.3278-.2047-.4692zm78.4454 9.2555c-3.8521.5072-7.7078 1.0177-11.5599 1.5248-1.1696.1553-2.3391.3105-3.5086.4623v3.36c0 3.9844-3.4355 7.2271-7.6567 7.2271h-2.3938v-6.8994c0-.9142-.7858-1.6559-1.7543-1.6559-.9685 0-1.7543.7417-1.7543 1.6559v6.8994h-7.96v-6.8994c0-.9142-.7858-1.6559-1.7543-1.6559-.9685 0-1.7543.7417-1.7543 1.6559v6.8994h-7.96v-6.8994c0-.9142-.7858-1.6559-1.7543-1.6559-.9685 0-1.7543.7417-1.7543 1.6559v6.8994h-2.3902c-4.2212 0-7.6567-3.2393-7.6567-7.2271v-3.36c-1.1695-.1518-2.339-.307-3.5085-.4623-3.8521-.5071-7.7079-1.0176-11.56-1.5248-1.1549-.1517-1.2024-.2173-.8113-1.2729 1.1403-3.0599 2.8032-7.5272 4.5428-12.1878 2.3135 2.1768 5.3579 3.4463 8.6435 3.5842.201.0069.3984.0138.5994.0138 3.2746 0 6.3812-1.1384 8.8116-3.2358 2.5802-2.225 4.086-5.2642 4.2395-8.5621.3216-6.8029-5.2775-12.5811-12.4846-12.8881a13.967 13.967 0 00-1.9407.0517c1.0379-2.4182 1.619-2.3596 3.2527-2.3596 0 0 15.8214 0 23.4635.0035h.0329c3.8192-.0035 9.685-.0035 14.597-.0035h8.8664c1.63 0 2.2111-.0586 3.2491 2.3596a14.1257 14.1257 0 00-1.9517-.0517c-7.2071.3035-12.8062 6.0852-12.4846 12.8881.1572 3.2944 1.663 6.3336 4.2395 8.5621 2.4305 2.0974 5.5406 3.2358 8.8116 3.2358.1974 0 .3984-.0034.5994-.0138 3.2893-.1379 6.3373-1.4109 8.6508-3.5911 1.7396 4.664 3.4062 9.1348 4.5465 12.1947.413 1.0591.3581 1.1212-.7931 1.2729zm1.5715-8.7932c-.3398-.9039-.6724-1.787-1.0014-2.6701-.6359-1.7042-1.2681-3.4083-1.9041-5.109 1.0307-1.8905 1.5314-4.0086 1.429-6.1922-.1571-3.2945-1.6629-6.3337-4.2395-8.5622-1.0562-.9107-2.244-1.6386-3.5122-2.1733-.3655-.9728-.7309-1.9491-1.1001-2.9219-.3362-.8935-.1754-1.2902.7602-1.6593 2.9019-1.1488 5.7672-2.3838 8.6471-3.5877.9612-.4002 1.1221-.3277 1.1221.5968.0073 10.6044.0073 21.2088.0036 31.8131 0 .1449.0475.3105-.2047.4658z" fill="#ED3333"/><path d="M40.3447 64.8544c-.3545-.3346 5.7452-10.8734 6.6516-10.8734.9064 0 7.0427 10.5043 6.6517 10.8734-.3911.3691-12.9451.3346-13.3033 0z" fill="#ED3333"/><path d="M8.7202 119.015H0v-7.545h27.6774v7.545h-8.7202V149.6H8.7202v-30.585zM32.0995 111.47h14.111c4.1591 0 7.2181 1.066 9.177 3.202 1.959 2.135 2.9384 5.278 2.9384 9.431 0 3.926-.9904 7.041-2.9676 9.345-1.9772 2.308-4.9449 3.46-8.903 3.46h-4.5428V149.6h-9.813v-38.13zm12.4736 18.235c1.2097 0 2.1198-.4 2.7265-1.2.6067-.8.91-2.211.91-4.229 0-2.094-.2924-3.554-.8771-4.375-.5848-.817-1.4437-1.228-2.573-1.228h-2.847v11.032h2.6606zM72.6746 111.47v14.292l10.1748-14.292h10.6609l-13.0804 17.949L93.9963 149.6H82.9736l-10.2954-15.493V149.6h-9.3269v-38.13h9.3233z" fill="#fff"/></svg>