<svg width="159" height="174" fill="none" xmlns="http://www.w3.org/2000/svg"><path d="M86.1464 88.5243c-.4532 0-.9018.145-1.2735.426a2.1143 2.1143 0 00-.843 1.6905c0 2.5651-2.0893 4.6544-4.6544 4.6544-2.5652 0-4.6545-2.0893-4.6545-4.6544 0-.6617-.3127-1.2872-.843-1.6905-.3716-.2765-.8158-.426-1.2735-.426-.1949 0-.3898.0272-.5801.0815l-30.619 6.5625v4.3962s24.1879-5.1168 28.7608-6.0866a.8077.8077 0 01.1768-.0182c.3625 0 .6798.2357.8293.5847 1.3415 3.2087 4.514 5.4748 8.2032 5.4748 3.6982 0 6.8706-2.2661 8.2076-5.4839.145-.3444.4578-.5756.8113-.5756a.78.78 0 01.1767.0182c4.5412.9608 28.7649 6.0866 28.7749 6.0911v-4.3961l-30.6194-6.5625a1.9573 1.9573 0 00-.5802-.0861z" fill="#fff"/><path d="M44.9585 90.4051v2.9232l26.7712-5.7377a3.1873 3.1873 0 01.8747-.1223c.6844 0 1.3642.2266 1.908.639.7886.5982 1.26 1.5455 1.26 2.5335 0 .9608.3761 1.8627 1.0559 2.5425.6799.6798 1.5863 1.056 2.5426 1.056.9608 0 1.8627-.3762 2.5425-1.056.6798-.6798 1.056-1.5817 1.056-2.5425 0-.988.4713-1.9353 1.2599-2.5335.5438-.4124 1.2237-.639 1.908-.639.2946 0 .5892.0408.8022.1042l26.8435 5.7558v-2.9549c-2.157-.2856-4.215-.9019-6.245-1.5274-2.529-.784-4.994-1.7448-7.5641-2.3521 2.6101.4351 5.1441 1.2372 7.7041 1.8445 2.017.485 4.07.9427 6.105 1.0832v-3.5894c-12.644-1.4775-24.0064-9.105-30.3468-6.9251a4.873 4.873 0 00-.4125.1632c.3581-.5122.7569-.9608 1.2011-1.3415 1.917-1.6271 4.6998-2.035 8.2711-1.2011 2.9368.6844 4.6046 1.7494 6.5307 2.9776 2.3254 1.4866 4.9624 3.1725 10.3424 4.3781l.349-1.55c-5.108-1.1421-7.51-2.6785-9.8348-4.165-1.9624-1.2554-3.8206-2.4428-7.0248-3.1861-4.0834-.9563-7.3375-.4351-9.6579 1.5364-2.4338 2.0666-3.7299 5.7286-3.8206 10.6641l-.0181.0045c-.0861-4.94-1.3868-8.602-3.8206-10.6686-2.3204-1.9715-5.5745-2.4972-9.6579-1.5364-3.2042.7433-5.0624 1.9307-7.0248 3.1861-2.325 1.4865-4.727 3.0229-9.8347 4.165l.349 1.55c5.3796-1.2056 8.0173-2.8915 10.3423-4.3781 1.9261-1.2282 3.5894-2.2977 6.5307-2.9776 3.5714-.8339 6.3541-.426 8.2712 1.2011.4441.3807.8475.8293 1.201 1.3415a6.4855 6.4855 0 00-.4125-.1632c-6.3404-2.1799-17.7024 5.4476-30.347 6.9251v3.603c2.1074-.1224 4.2421-.5937 6.3404-1.0968 2.5607-.6073 5.0941-1.4094 7.7046-1.8445-2.5697.6073-5.0352 1.5681-7.5641 2.3521-2.1029.6481-4.2375 1.2872-6.4809 1.5591zM79.3755 72.893c-1.4186-11.0311-1.3687-18.559-10.1565-22.4929-1.7585-.8203-3.7118-1.7131-5.4929-2.8325-3.5396-2.2253-6.9886-5.4023-8.5657-9.9344-.7433-2.2389-.9518-4.718-.5167-7.0384.4034-2.3341 1.3687-4.4687 2.5425-6.3858 2.4247-3.8115 5.783-6.7438 9.4903-8.9826 3.748-2.18 7.8994-3.6756 12.2865-4.2104 4.3554-.5302 9.0733-.0679 13.2338 2.0531 4.1786 2.0712 7.4327 5.715 9.3992 9.6806 1.007 2.0032 1.723 4.02 2.289 6.1818.571 2.325.585 4.7497.113 7.0882-.48 2.3341-1.509 4.6001-3.059 6.4764-1.5407 1.8854-3.5846 3.3266-5.7646 4.2058-2.1845.8883-4.4777 1.2282-6.6849 1.2509-1.0423.0362-2.4065-.0725-3.5169-.349-1.1511-.2764-2.2298-.6843-3.245-1.1738-4.0336-2.0032-7.1834-5.0986-9.3996-8.8376-1.0741-1.8809-1.9624-3.9838-2.0394-6.3948-.0363-1.192.222-2.4972.8928-3.6031.6571-1.1239 1.6859-1.9352 2.7329-2.4428 2.1346-.988 4.3055-1.0922 6.363-1.0016 2.0123.1541 4.2059.3173 6.0957 1.4639 1.9126 1.0741 3.0955 3.3175 2.8689 5.4249-.1677 2.0621-1.405 4.1152-3.3402 4.7588 1.8491-.8476 2.7601-2.9187 2.7193-4.7769-.0272-1.9126-1.1693-3.6076-2.819-4.369-1.6452-.8157-3.5849-.852-5.5156-.7251-1.8989.1042-3.816.4623-5.2391 1.3279-2.9731 1.6814-1.8854 5.6244.1813 8.5204 2.0847 2.9413 5.0623 5.4295 8.253 6.7982.7976.3263 1.6134.5755 2.411.7206.8385.1405 1.4775.1631 2.4247.0861 1.7721-.1133 3.4535-.5167 4.9491-1.1693 2.9912-1.3098 5.008-4.0019 5.5246-7.1789.272-1.5772.1632-3.2223-.2266-4.7632-.4668-1.686-1.1058-3.4354-1.9125-4.9763-1.6089-3.1226-3.9973-5.6651-7.0021-7.1199-6.0187-3.032-13.9952-1.7585-20.245 1.7992-3.1634 1.7539-6.0232 4.1333-7.9856 6.9976-1.9397 2.8688-2.8144 6.2045-1.9533 9.3362.8565 3.1588 3.3809 5.9416 6.3857 8.126 1.5138 1.124 3.1272 2.0259 4.9038 3.032 11.4209 6.3178 9.0687 13.7006 8.6201 25.4297zM82.8606 6.4567c-.3716-1.065-.4577-2.1255-.4758-3.1906.0181-1.065.1042-2.1256.4758-3.1906.3717 1.065.4578 2.1256.4759 3.1906-.0181 1.065-.1042 2.1301-.4759 3.1906zM73.783 8.4237c-.63-.8747-.9881-1.8264-1.2781-2.8009-.2583-.9789-.4487-1.9805-.3626-3.0546.6345.8747.988 1.8265 1.2781 2.8008.2583.9835.4487 1.9806.3626 3.0547zM65.3893 12.4119c-.8792-.5393-1.5318-1.2463-2.1346-1.9986-.571-.775-1.0877-1.5863-1.3777-2.5788.8837.5348 1.5363 1.2463 2.1346 1.9987.571.775 1.0877 1.5907 1.3777 2.5787zM90.7829 8.4237c-.0998-1.0152.0725-1.9579.3127-2.878.2719-.9109.6118-1.8082 1.2282-2.624.1042 1.0197-.0725 1.9579-.3127 2.8779-.2765.9155-.6164 1.8083-1.2282 2.624zM98.1565 13.6265c.3127-1.0197.852-1.8627 1.4457-2.6694.6208-.7841 1.2958-1.5228 2.2028-2.0893-.313 1.0197-.852 1.8627-1.446 2.6649-.6253.7886-1.3006 1.5273-2.2025 2.0938zM72.9624 70.7448a29.043 29.043 0 00-3.2722-1.9262c-1.124-.5756-2.2751-1.0877-3.458-1.5092-2.3522-.8384-4.8177-1.3868-7.2469-1.2962-2.4247.059-4.7768.7614-6.7392 2.0893l-.8929.5258-.2266.1314-.2356.1088-.4759.2084c-.1586.068-.3173.1451-.4804.204l-.4895.1586c-.3263.0997-.6526.2266-.9834.2901l-.9971.2266-1.0016.1495c-.3354.059-.6708.0725-1.0061.0997-.3354.0182-.6708.0635-1.0062.059l-1.0061.0045c-.3354.0045-.6662-.0317-1.0016-.0453-.6708-.0227-1.3279-.1224-1.9941-.1994-.3309-.0363-.6572-.1133-.988-.1723-.3263-.0679-.6572-.1133-.979-.1994-.6435-.1677-1.3007-.3127-1.9307-.5302-2.547-.7932-4.9943-1.967-7.1788-3.5532-2.189-1.5727-4.1288-3.5396-5.6198-5.8374-1.473-2.3068-2.461-4.9219-2.9233-7.6049-.4577-2.6875-.3943-5.4204.0182-8.0535.1269-.6527.222-1.3189.3761-1.9624l.4986-1.9262c.1767-.639.4124-1.2554.6163-1.8808.1088-.3127.2085-.6255.3218-.9336l.358-.911c.9835-2.4156 2.1211-4.804 3.6529-7.0066.7614-1.1014 1.6271-2.1573 2.6423-3.1.5076-.4714 1.0559-.911 1.6496-1.3007.5892-.3943 1.2328-.7388 1.9262-.9926.6889-.2583 1.4276-.426 2.1845-.4713a6.715 6.715 0 012.2479.2493c1.4593.4214 2.6876 1.3279 3.6076 2.3929.9155 1.0741 1.5862 2.2933 2.0621 3.5532.2402.63.4396 1.269.5937 1.9171.1586.6481.2765 1.3007.358 1.9579.3082 2.624.0997 5.2572-.494 7.7725-.2991 1.2554-.6934 2.4836-1.1647 3.6756-.485 1.1874-1.0333 2.3431-1.6724 3.4444.4804-1.1784.911-2.3703 1.2509-3.5894.3444-1.2147.6164-2.4429.784-3.6847.34-2.4745.3581-4.9944-.1314-7.3918-.2357-1.1965-.5846-2.3658-1.0786-3.4535-.4895-1.0877-1.1376-2.0848-1.9262-2.9006-.7931-.8022-1.7312-1.4095-2.7374-1.6451-1.0016-.2448-2.053-.1179-3.032.3082-.494.2039-.9698.4849-1.4185.8203-.2312.1541-.4442.3489-.6617.5257-.2085.1949-.426.3807-.6254.5937-.8158.8203-1.55 1.7585-2.1981 2.7691-1.3007 2.0213-2.3341 4.2647-3.2042 6.5716l-.3173.8702c-.0997.29-.1903.5801-.2855.8747-.1813.5846-.3898 1.1602-.5438 1.7494l-.4351 1.7675c-.1315.5892-.2085 1.1919-.3173 1.7856-.358 2.3794-.3943 4.7905.0091 7.1109.3852 2.325 1.2282 4.5503 2.47 6.5444 1.2463 1.9896 2.9187 3.7118 4.8176 5.1485 1.8945 1.4457 4.0699 2.5425 6.3405 3.3402 2.2751.7976 4.6771 1.2508 7.0746 1.3097.2991.0227.5982-.009.8974-.009.2991-.0091.5982-.0091.8928-.0499l.8883-.0906.8701-.1586c1.1557-.2493 2.2344-.6255 3.2541-1.1965 2.3476-1.3823 5.1077-2.0168 7.7635-1.8944 1.3279.0589 2.6377.2855 3.8976.6299 1.26.3445 2.4791.7977 3.6484 1.3506 2.3204 1.1013 4.4913 2.5062 6.4039 4.1877zM85.7521 70.7448c.6979-3.0637 1.8219-6.064 3.5622-8.7606.8747-1.3369 1.9488-2.5878 3.2994-3.5577.6753-.4804 1.4231-.8747 2.2253-1.1557.8022-.2719 1.6542-.4124 2.5062-.4215 1.7132-.0136 3.3628.5303 4.8308 1.2781.735.3807 1.433.8112 2.108 1.278.662.4759 1.31.9699 1.922 1.5047.312.2583.602.5393.906.8067.285.2584.566.5122.852.7705.576.5031 1.169.9925 1.777 1.4639 1.214.9426 2.474 1.8355 3.775 2.6648a52.9996 52.9996 0 003.988 2.325c1.36.7116 2.742 1.3778 4.156 1.9443 1.41.571 2.851 1.0469 4.306 1.3732 1.445.3263 2.918.5031 4.305.3898 1.382-.1178 2.665-.5257 3.608-1.346.951-.8022 1.59-1.9987 1.935-3.3493.177-.6753.285-1.3823.353-2.1029.055-.7251.077-1.4639.059-2.2071-.059-1.5183-.154-3.0501-.367-4.5593-.081-.7569-.217-1.5047-.34-2.257-.063-.3762-.149-.7433-.222-1.1195a18.4269 18.4269 0 00-.249-1.1103c-.345-1.4775-.811-2.9187-1.36-4.3191-.544-1.4005-1.21-2.751-1.994-4.0019-.784-1.2554-1.699-2.4065-2.742-3.3991-1.042-.988-2.234-1.7856-3.53-2.2796-1.292-.4986-2.688-.6799-4.079-.5258-1.392.1451-2.765.6255-4.061 1.2962-.163.0861-.331.1541-.489.2493l-.472.2855c-.313.1949-.639.3717-.933.6028-.304.2175-.608.4305-.907.6526l-.87.7206c-.295.2312-.567.5031-.843.7569-.272.2628-.562.5121-.82.784-.531.5303-1.006 1.0968-1.451 1.6815-.865 1.1738-1.531 2.4836-1.744 3.8432-.105.6798-.091 1.3642.054 2.0304.154.6662.431 1.3052.816 1.8944.775 1.1783 1.949 2.1301 3.254 2.8326 1.31.7025 2.769 1.1693 4.265 1.3732 1.495.2039 3.036.1405 4.482-.2901 1.446-.4169 2.769-1.2825 3.639-2.5425.879-1.2554 1.242-2.8371 1.278-4.4007.113 1.5591-.118 3.2043-.938 4.6183-.412.6979-.961 1.3188-1.6 1.8309-.639.5167-1.373.9019-2.139 1.192-1.536.5846-3.2.7387-4.827.6164-1.627-.1269-3.236-.5348-4.74-1.2328-1.491-.707-2.892-1.7267-3.921-3.1317-.507-.7024-.906-1.5046-1.146-2.3612-.236-.8611-.295-1.7675-.2-2.6468.186-1.772.97-3.3628 1.913-4.736.485-.6844 1.002-1.337 1.563-1.9352.277-.3082.572-.5801.853-.8747.29-.2856.566-.5847.879-.8475l.92-.8158c.322-.2583.652-.5031.979-.7569.317-.2628.675-.4804 1.024-.707l.526-.3399c.176-.1133.367-.2039.548-.3082 1.464-.8112 3.1-1.4185 4.831-1.6406 1.727-.2266 3.54-.0317 5.19.5665 1.654.5937 3.136 1.5545 4.396 2.7012 1.269 1.142 2.311 2.479 3.204 3.8749.893 1.4004 1.632 2.8824 2.234 4.4052.603 1.5228 1.12 3.0728 1.5 4.6545.109.3943.195.7886.277 1.1874.081.3988.177.7931.245 1.192.131.7976.285 1.5953.371 2.3975.213 1.6089.304 3.2132.358 4.8357.018.8249-.013 1.6633-.081 2.5018-.086.8429-.222 1.6904-.449 2.5334s-.544 1.686-1.002 2.4836c-.453.7977-1.056 1.5409-1.781 2.1482-.725.6119-1.563 1.0787-2.433 1.3778-.871.3082-1.763.4532-2.638.5121-1.754.1088-3.435-.1495-5.04-.5393-1.604-.3988-3.145-.9427-4.636-1.5772-2.982-1.2644-5.77-2.8779-8.403-4.6952a52.4938 52.4938 0 01-3.829-2.8961 39.4866 39.4866 0 01-1.809-1.5953c-.294-.2764-.584-.562-.865-.8429-.272-.2629-.54-.5439-.821-.7977-.553-.5257-1.133-1.0152-1.722-1.482-.598-.4532-1.219-.8792-1.867-1.2509-1.287-.7387-2.6967-1.2508-4.1379-1.3188-.7161-.0363-1.4412.0408-2.1392.2357-.6979.1994-1.3687.503-1.9986.8973-1.2599.7931-2.3341 1.908-3.2677 3.1317-.9291 1.2282-1.7176 2.5788-2.402 3.9837-.6979 1.4005-1.2871 2.8598-1.7675 4.3554z" fill="#fff"/><path d="M70.3973 61.7395c-1.7222-1.5636-3.807-2.6287-5.9869-3.245-1.0968-.2901-2.2162-.4804-3.3447-.562l-1.7404-.0544a6.2638 6.2638 0 01-1.8173-.4124c-1.1603-.4668-2.1483-1.269-2.9142-2.2117-.7523-.9563-1.3279-2.0349-1.6905-3.1725-.7478-2.2706-.775-4.7315-.1722-6.9794-.2402 2.3113 0 4.6454.8203 6.7483.4124 1.0469.9654 2.0349 1.686 2.8734.7115.8429 1.5907 1.5363 2.5923 1.9261a5.4392 5.4392 0 001.5591.3716l.8475.0363c.2991.0136.5937.0227.8928.0453 1.1829.1314 2.3567.349 3.4807.7342 2.2388.7705 4.3236 2.0757 5.7875 3.9022zM89.2373 71.6013c.9064-1.0695 1.9624-2.0168 3.1226-2.828 1.1693-.7931 2.4791-1.4639 3.952-1.6633.7297-.0997 1.5047-.0589 2.2298.1722.7252.2266 1.3914.6345 1.9393 1.1376.553.494.998 1.133 1.396 1.6678.399.562.843 1.0877 1.278 1.618.893 1.0469 1.854 2.0304 2.892 2.9323a21.2766 21.2766 0 003.358 2.3566c1.197.6617 2.475 1.1875 3.816 1.473 1.342.2946 2.747.3263 4.12.0544-1.328.4622-2.783.5574-4.197.3716-1.414-.1903-2.787-.6526-4.061-1.2871-1.282-.6254-2.465-1.4367-3.575-2.325-1.093-.9155-2.094-1.9261-3.023-3.0002-.444-.553-.898-1.1014-1.306-1.6815-.43-.5937-.793-1.1058-1.264-1.5635-.4623-.4533-1.0107-.8113-1.618-1.0198-.6028-.2084-1.2599-.2764-1.9125-.222-1.3189.1178-2.6105.6571-3.798 1.346-1.1874.6843-2.3068 1.5273-3.3492 2.4609zM84.184 63.9466c.0725-1.1874.3036-2.3703.648-3.5169.349-1.1466.8158-2.2661 1.4503-3.2994.63-1.0333 1.4412-1.9715 2.4066-2.7283.9653-.7614 2.1029-1.3053 3.2948-1.618a10.2985 10.2985 0 011.8174-.3127c.3037-.0272.6118-.0408.92-.0453h.8838c1.1376-.0408 2.257-.3309 3.3039-.7977 2.0982-.9381 3.8792-2.5198 5.3302-4.3327 1.459-1.8174 2.61-3.884 3.467-6.0594.879-2.1754 1.432-4.4732 1.722-6.8027.548-4.659-.154-9.5084-2.266-13.7913 1.214 2.0531 2.057 4.3282 2.565 6.6758.245 1.1784.39 2.3749.462 3.5759.064 1.201.036 2.4111-.068 3.6121-.444 4.795-2.166 9.522-5.194 13.3425-.765.9427-1.613 1.831-2.56 2.606-.943.775-1.985 1.4548-3.1274 1.9307-1.133.4849-2.3657.7795-3.612.8022l-.9019-.0136c-.2901-.0046-.5756.0045-.8657.0181-.5755.0363-1.1466.1133-1.704.2447-1.1195.2584-2.18.7433-3.1181 1.4141-.9382.6707-1.7358 1.5409-2.393 2.5062-.6617.9654-1.1829 2.0349-1.5862 3.1453-.204.5575-.3717 1.124-.5167 1.6995-.1586.5711-.281 1.1557-.358 1.7449zM62.167 71.6467a39.8832 39.8832 0 00-1.8038.2039c-.5982.0816-1.192.1858-1.7902.2855-1.1874.2176-2.3658.4714-3.526.7796-2.3204.6163-4.5774 1.4502-6.6984 2.547-1.0651.5393-2.0894 1.1602-3.0502 1.8763-.9608.7115-1.8536 1.5273-2.6286 2.4474-.784.9154-1.3823 1.9669-2.0122 3.0047-.6255 1.0379-1.2237 2.0984-1.8854 3.1227-.6617 1.0242-1.3596 2.044-2.2479 2.9368-.4397.4441-.9246.8611-1.4684 1.2055-.5439.3445-1.1512.6073-1.7902.7569-.6391.1495-1.3098.1722-1.9534.0906-.6481-.0815-1.269-.2583-1.8627-.4894-.5982-.2312-1.1647-.5439-1.6859-.9201-.5212-.3716-1.0061-.8021-1.4322-1.2825-.8384-.9699-1.4638-2.1301-1.7675-3.381-.2991-1.2509-.2629-2.5788.1224-3.7979.1949-.6073.4758-1.1829.8112-1.7132.3399-.5302.7524-1.0061 1.1874-1.4502.8974-.8611 1.9488-1.5319 3.0547-2.035l.0408.0771c-.5122.3263-1.0152.6571-1.4775 1.0378l-.3444.2856-.3263.3081c-.2221.1995-.417.4261-.6209.6345-.3853.4487-.7388.9246-1.0152 1.4367a7.633 7.633 0 00-.6391 1.6089c-.2855 1.1149-.2628 2.2933.0363 3.3946.3127 1.0968.8747 2.1255 1.6451 2.9685.766.8475 1.7087 1.5364 2.7646 1.976 1.0515.4487 2.2026.6662 3.2949.4396 1.0922-.222 2.0893-.852 2.9504-1.6497.8566-.8067 1.6225-1.7358 2.334-2.7056.7025-.979 1.3823-1.9806 2.0304-3.0094.3309-.5075.639-1.0287.979-1.5363l.5121-.7614.5574-.7297a20.0705 20.0705 0 012.5426-2.6513 20.2955 20.2955 0 013.0047-2.1392 21.1978 21.1978 0 013.3538-1.5454c1.1557-.4215 2.3386-.7614 3.5351-1.0243 2.3929-.5212 4.8403-.7931 7.2785-.6888v.0861h-.009zM.6934 118.137h7.1335l2.1754 18.178 3.3493-18.006h5.7422l3.3492 18.138 2.0893-18.31h6.9568l-5.3479 29.01H19.266l-3.0456-16.787-3.3492 16.787H5.869l-5.1756-29.01zM48.362 147.147h-5.6108l-.3489-1.563c-.5802.607-1.2056 1.087-1.8718 1.436-.6662.349-1.4775.521-2.4338.521-.8112 0-1.5953-.086-2.3476-.262-.7523-.173-1.4231-.499-1.9987-.979-.5801-.481-1.0423-1.124-1.3913-1.936-.349-.811-.5212-1.871-.5212-3.177v-1.128c0-1.074.1903-1.971.5665-2.697.3762-.725.8747-1.305 1.5001-1.74.6209-.435 1.3415-.748 2.1528-.934.8112-.19 1.6678-.281 2.5652-.281.784 0 1.4638.059 2.044.173.5801.117 1.1284.29 1.6542.521v-.739c0-.462-.0589-.884-.1722-1.26-.1179-.376-.349-.698-.698-.956-.349-.263-.8339-.462-1.4593-.607-.6255-.145-1.4277-.218-2.4157-.218-.6662 0-1.3868.063-2.1527.195-.7705.131-1.4276.254-1.9805.372v-4.872c.3172-.087.7024-.159 1.1511-.218s.92-.113 1.414-.172c.494-.059.9654-.1 1.4141-.132.4486-.027.8339-.045 1.1511-.045 2.0304 0 3.6756.19 4.9355.567 1.2599.376 2.2525.929 2.9776 1.654.7251.725 1.2191 1.631 1.4775 2.719.2628 1.088.3897 2.325.3897 3.716v12.042h.0091zm-8.5249-4.042c.8384 0 1.4729-.245 1.8899-.739.4215-.494.6299-1.002.6299-1.523v-1.958c-.5212-.435-1.2327-.652-2.1301-.652-.8112 0-1.4548.154-1.9352.457-.4804.304-.7161.92-.7161 1.849v.304c0 .784.1723 1.355.5212 1.718.349.362.9291.544 1.7404.544zM52.364 126.707h5.8736l.4804 1.913c.6663-.839 1.4367-1.405 2.3069-1.695.8702-.29 1.6361-.435 2.3068-.435.2901 0 .5665.013.8249.045.2628.027.494.073.6979.132v5.565c-.5529-.118-1.1013-.172-1.6542-.172-1.3052 0-2.3431.24-3.109.716-.7705.48-1.1512 1.341-1.1512 2.588v11.788h-6.567v-20.445h-.0091zM67.7142 118.137h6.5671v29.01h-6.5671v-29.01zM86.9803 147.755c-1.3641 0-2.6014-.173-3.7163-.522-1.1149-.349-2.0712-.915-2.8688-1.695-.7977-.784-1.4141-1.799-1.8491-3.045-.4351-1.247-.6527-2.756-.6527-4.523v-2.044c0-1.768.2221-3.268.6753-4.501.4487-1.232 1.0741-2.239 1.8718-3.023.7976-.784 1.7539-1.346 2.8688-1.695 1.1149-.349 2.3431-.521 3.6756-.521 1.3641 0 2.6105.172 3.739.521 1.133.349 2.0938.916 2.8914 1.695.7977.784 1.4141 1.791 1.8491 3.023.4351 1.233.6527 2.733.6527 4.501v2.044c0 1.767-.2176 3.276-.6527 4.523-.435 1.246-1.0423 2.261-1.8264 3.045-.784.784-1.7403 1.346-2.8688 1.695-1.1331.349-2.3975.522-3.7889.522zm.0861-16.438c-1.1285 0-1.8355.435-2.1074 1.305-.2765.87-.4124 2.13-.4124 3.784v1.133c0 1.654.1223 2.914.3716 3.784.2447.871.9336 1.306 2.0667 1.306 1.1013 0 1.7901-.435 2.0666-1.306.2765-.87.4124-2.13.4124-3.784v-1.133c0-.811-.0226-1.536-.0634-2.175-.0453-.639-.136-1.174-.281-1.609-.145-.435-.3852-.762-.7161-.979-.3399-.218-.784-.326-1.337-.326zM99.3348 135.667c0-3.217.8202-5.561 2.4562-7.024 1.636-1.464 4.025-2.199 7.156-2.199.639 0 1.328.05 2.067.155.739.099 1.428.226 2.067.371v5.131c-.553-.145-1.038-.254-1.46-.327-.421-.072-.965-.109-1.631-.109-.784 0-1.428.073-1.935.218-.508.145-.916.385-1.22.716-.303.335-.516.789-.629 1.369-.118.58-.173 1.305-.173 2.175v1.654c0 1.623.29 2.77.87 3.436.581.666 1.655 1.001 3.218 1.001.666 0 1.224-.027 1.673-.086.448-.059.947-.145 1.5-.263v5.09c-.639.145-1.342.267-2.108.372-.77.099-1.473.154-2.107.154-3.132 0-5.538-.735-7.22-2.198-1.681-1.464-2.5242-3.807-2.5242-7.025v-2.611zM116.425 118.137h6.395v15.527l4.958-6.957h7.048l-6.522 9.133 6.218 11.307h-7.088l-4.609-8.57v8.57h-6.395v-29.01h-.005zM137.867 118.137h6.395l-3.481 11.049h-5.176l2.262-11.049zM158.307 141.147c0 .956-.168 1.826-.499 2.61-.335.784-.879 1.45-1.631 1.999-.753.553-1.732.979-2.937 1.282-1.206.304-2.674.458-4.414.458-.318 0-.726-.013-1.22-.045-.494-.027-1.001-.073-1.522-.132-.522-.058-1.025-.117-1.501-.172-.48-.059-.879-.131-1.196-.217v-4.872c.548.117 1.246.24 2.089.371.839.132 1.596.195 2.262.195 1.45 0 2.452-.1 3-.304.548-.203.825-.639.825-1.305 0-.494-.19-.847-.567-1.065-.376-.217-1.015-.485-1.912-.807l-1.002-.349c-.725-.262-1.368-.53-1.935-.806-.566-.277-1.051-.63-1.455-1.065-.408-.435-.716-.979-.933-1.632-.218-.652-.327-1.486-.327-2.502 0-1.826.739-3.34 2.216-4.545 1.478-1.201 3.699-1.804 6.654-1.804.317 0 .702.014 1.151.045.448.027.92.073 1.414.132.494.059.965.118 1.414.172.449.059.834.131 1.151.217v4.872c-.494-.145-1.138-.276-1.935-.389-.798-.118-1.532-.172-2.198-.172-.812 0-1.455.045-1.936.131-.48.086-.842.195-1.087.326-.245.132-.408.281-.481.458-.072.172-.108.349-.108.521 0 .317.059.567.172.739.113.172.303.326.566.458.263.131.594.263 1.002.389.408.132.897.3 1.477.499l1.392.48c1.45.494 2.479 1.197 3.086 2.108.621.915.925 2.153.925 3.721z" fill="#fff"/><path d="M13.9135 151.92c1.5092 0 2.7918.14 3.8523.421 1.0605.281 1.9216.675 2.5924 1.183.6707.507 1.1557 1.128 1.4593 1.858.3037.73.4577 1.546.4577 2.443 0 .489-.0679.961-.2084 1.414-.1405.453-.3581.879-.6572 1.273-.2991.395-.6843.757-1.1557 1.088-.4713.331-1.0333.616-1.695.852 1.4367.349 2.5017.916 3.1906 1.695.6889.78 1.0333 1.79 1.0333 3.028 0 .929-.1812 1.794-.5393 2.592-.358.798-.8883 1.496-1.5817 2.089-.6934.594-1.55 1.061-2.5697 1.396-1.0197.336-2.1845.503-3.4897.503H5.8781V151.92h8.0354zm-2.9685 3.793v5.393h2.6376c.5575 0 1.0651-.041 1.5138-.118.4487-.081.8339-.217 1.1466-.421.3127-.2.5529-.476.7206-.825.1632-.349.2493-.789.2493-1.319 0-.521-.0635-.952-.1949-1.296-.1314-.345-.3309-.621-.5982-.834-.272-.208-.6119-.358-1.0243-.449-.4124-.09-.9064-.136-1.4775-.136h-2.973v.005zm3.5667 14.222c.6708 0 1.2146-.086 1.6407-.254.426-.168.7568-.39.997-.657.2402-.272.4034-.576.494-.916.0907-.34.136-.684.136-1.033 0-.399-.0544-.761-.1586-1.079-.1043-.322-.2856-.589-.5394-.811-.2538-.222-.5937-.39-1.0106-.508-.4215-.117-.9472-.181-1.5863-.181h-3.535v5.439h3.5622zM32.3592 157.974c1.1784 0 2.2525.186 3.2223.553.9699.372 1.7993.898 2.4972 1.587.6934.688 1.2328 1.527 1.618 2.51.3852.984.5756 2.09.5756 3.318 0 1.237-.1904 2.357-.5756 3.349-.3852.993-.9246 1.84-1.618 2.534-.6934.693-1.5273 1.228-2.4972 1.604-.9698.376-2.0439.562-3.2223.562-1.1874 0-2.2706-.186-3.245-.562-.9744-.376-1.8128-.911-2.5199-1.604-.7024-.694-1.2508-1.537-1.6315-2.534-.3852-.992-.5756-2.112-.5756-3.349 0-1.228.1904-2.334.5756-3.318.3852-.983.9291-1.822 1.6315-2.51.7025-.689 1.5455-1.22 2.5199-1.587.9744-.367 2.0576-.553 3.245-.553zm0 12.577c1.0696 0 1.8536-.376 2.3612-1.133.5031-.752.7569-1.899.7569-3.44s-.2538-2.683-.7569-3.431c-.503-.747-1.2916-1.124-2.3612-1.124-1.1013 0-1.9035.377-2.4111 1.124-.5076.748-.7659 1.895-.7659 3.431 0 1.537.2538 2.683.7659 3.44.5121.757 1.3143 1.133 2.4111 1.133zM49.7761 157.974c1.1783 0 2.2524.186 3.2223.553.9699.372 1.7993.898 2.4972 1.587.6934.688 1.2327 1.527 1.618 2.51.3852.984.5755 2.09.5755 3.318 0 1.237-.1903 2.357-.5755 3.349-.3853.993-.9246 1.84-1.618 2.534-.6934.693-1.5273 1.228-2.4972 1.604-.9699.376-2.044.562-3.2223.562-1.1874 0-2.2706-.186-3.245-.562-.9744-.376-1.8129-.911-2.5199-1.604-.7025-.694-1.2508-1.537-1.6315-2.534-.3853-.992-.5756-2.112-.5756-3.349 0-1.228.1903-2.334.5756-3.318.3852-.983.929-1.822 1.6315-2.51.7025-.689 1.5455-1.22 2.5199-1.587.9744-.367 2.0576-.553 3.245-.553zm0 12.577c1.0696 0 1.8536-.376 2.3612-1.133.5031-.752.7569-1.899.7569-3.44s-.2538-2.683-.7569-3.431c-.5031-.747-1.2916-1.124-2.3612-1.124-1.1013 0-1.9035.377-2.4111 1.124-.5076.748-.7659 1.895-.7659 3.431 0 1.537.2538 2.683.7659 3.44.5076.757 1.3098 1.133 2.4111 1.133zM64.6731 151.321v12.572h.6889c.2901 0 .5076-.04.6572-.127.1495-.086.2991-.226.4486-.426l2.9369-4.378c.1812-.249.3852-.435.6163-.562.2312-.126.5258-.185.8838-.185h4.2556l-4.0154 5.529c-.3807.498-.8294.911-1.3506 1.228.2312.172.4396.367.63.594.1903.226.3716.476.5393.757l4.378 7.432H71.145c-.349 0-.6481-.059-.8974-.172-.2492-.113-.4577-.317-.6299-.607l-2.9368-5.502c-.1405-.25-.2856-.413-.4351-.485-.1496-.077-.3762-.113-.6753-.113h-.8974v6.879h-4.6454v-22.434h4.6454zM96.2937 156.356c-.1496.241-.3082.422-.4714.54-.1631.118-.3761.181-.639.181-.2311 0-.4759-.072-.7433-.217a68.2967 68.2967 0 00-.8973-.485c-.3354-.182-.7161-.34-1.1467-.485-.4305-.145-.92-.218-1.4684-.218-.9472 0-1.6542.204-2.121.607-.4668.404-.6979.952-.6979 1.641 0 .44.1405.802.4215 1.092.2809.29.6481.54 1.1013.748.4532.209.9744.403 1.559.576.5846.176 1.1829.371 1.7902.584.6073.213 1.2055.467 1.7902.757.5846.29 1.1058.657 1.559 1.111.4532.448.8203.997 1.1013 1.64.281.644.4215 1.423.4215 2.33 0 1.01-.1767 1.953-.5257 2.832-.349.879-.8566 1.645-1.5228 2.303-.6662.652-1.482 1.169-2.4564 1.545-.9744.376-2.0802.562-3.3175.562-.6798 0-1.3732-.068-2.0757-.208-.7025-.141-1.3869-.336-2.044-.594a11.7834 11.7834 0 01-1.8582-.907c-.5801-.349-1.0832-.738-1.5137-1.169l1.5001-2.366c.1179-.167.2765-.312.4714-.426.1949-.113.4079-.172.639-.172.2991 0 .6028.095.9064.286.3037.19.6481.398 1.0333.63.3853.231.8249.439 1.328.63.4985.19 1.0877.285 1.7675.285.92 0 1.6315-.204 2.1437-.607.5076-.404.7659-1.047.7659-1.926 0-.508-.1405-.925-.4215-1.242-.281-.322-.6481-.585-1.1013-.793-.4532-.209-.9699-.395-1.55-.553a44.6303 44.6303 0 01-1.7811-.53 13.2245 13.2245 0 01-1.7857-.721c-.5801-.286-1.0967-.657-1.5499-1.124-.4533-.467-.8203-1.042-1.1013-1.74-.281-.694-.4215-1.55-.4215-2.57 0-.82.1631-1.618.494-2.398.3308-.779.8158-1.473 1.4548-2.084.639-.608 1.4231-1.097 2.3522-1.46.929-.362 1.9941-.548 3.1906-.548.6707 0 1.3233.054 1.9578.159.6345.104 1.2373.258 1.8038.462.5711.204 1.1013.449 1.5953.734.494.286.9382.607 1.3279.965l-1.2644 2.343zM105.195 173.995c-.739 0-1.392-.108-1.958-.321-.567-.213-1.038-.522-1.423-.916s-.676-.87-.875-1.432c-.199-.557-.299-1.183-.299-1.872v-8.031h-1.3189c-.2402 0-.4442-.077-.6164-.231-.1722-.154-.2538-.38-.2538-.68V158.7l2.4741-.481.916-3.793c.118-.481.458-.721 1.02-.721h2.429v4.541h3.852v3.177h-3.852v7.719c0 .358.086.657.263.892.177.236.426.354.757.354.167 0 .312-.018.426-.054.113-.037.213-.078.299-.118.086-.046.163-.086.24-.118.077-.036.163-.055.263-.055.14 0 .254.032.335.096.086.063.172.167.263.308l1.41 2.202c-.599.449-1.274.789-2.022 1.011-.757.227-1.527.335-2.329.335zM118.161 157.974c1.179 0 2.253.186 3.223.553.969.372 1.799.898 2.497 1.587.693.688 1.232 1.527 1.618 2.51.385.984.575 2.09.575 3.318 0 1.237-.19 2.357-.575 3.349-.386.993-.925 1.84-1.618 2.534-.694.693-1.528 1.228-2.497 1.604-.97.376-2.044.562-3.223.562-1.187 0-2.27-.186-3.245-.562-.974-.376-1.813-.911-2.52-1.604-.702-.694-1.251-1.537-1.631-2.534-.385-.992-.576-2.112-.576-3.349 0-1.228.191-2.334.576-3.318.385-.983.929-1.822 1.631-2.51.703-.689 1.546-1.22 2.52-1.587.975-.367 2.053-.553 3.245-.553zm0 12.577c1.07 0 1.854-.376 2.361-1.133.503-.752.757-1.899.757-3.44s-.254-2.683-.757-3.431c-.503-.747-1.291-1.124-2.361-1.124-1.101 0-1.903.377-2.411 1.124-.507.748-.766 1.895-.766 3.431 0 1.537.254 2.683.766 3.44.508.757 1.31 1.133 2.411 1.133zM139.829 161.904c-.14.167-.276.303-.403.403-.132.1-.313.15-.553.15-.231 0-.435-.055-.621-.163a74.48 74.48 0 01-.621-.368c-.231-.136-.498-.258-.811-.367-.308-.108-.694-.163-1.156-.163-.571 0-1.06.104-1.477.313-.417.208-.757.507-1.029.897-.272.39-.471.866-.598 1.432-.132.567-.195 1.201-.195 1.913 0 1.486.285 2.633.861 3.431.575.797 1.364 1.201 2.375 1.201.539 0 .965-.068 1.282-.204.318-.136.58-.286.803-.449.217-.163.421-.317.607-.458.186-.14.417-.208.698-.208.371 0 .648.136.838.403l1.351 1.664c-.481.548-.984.997-1.514 1.341-.53.345-1.07.616-1.627.811-.553.195-1.11.331-1.672.404-.558.077-1.106.113-1.632.113-.947 0-1.858-.181-2.719-.539-.866-.358-1.623-.884-2.28-1.568-.652-.685-1.174-1.528-1.559-2.525-.385-.997-.575-2.139-.575-3.417 0-1.119.167-2.166.503-3.141.335-.974.829-1.817 1.482-2.533.652-.716 1.464-1.278 2.429-1.686.965-.408 2.08-.617 3.349-.617 1.219 0 2.289.195 3.209.585.92.39 1.749.961 2.488 1.709l-1.233 1.636zM147.638 151.321v12.572h.689c.29 0 .508-.04.657-.127.15-.086.299-.226.449-.426l2.937-4.378c.181-.249.385-.435.616-.562.231-.126.526-.185.884-.185h4.255l-4.015 5.529c-.381.498-.829.911-1.351 1.228.232.172.44.367.63.594.191.226.372.476.54.757l4.378 7.432h-4.197c-.349 0-.648-.059-.897-.172-.25-.113-.458-.317-.63-.607l-2.937-5.502c-.141-.25-.286-.413-.435-.485-.15-.077-.376-.113-.676-.113h-.897v6.879h-4.645v-22.434h4.645z" fill="#D6D6D6"/></svg>